<?xml version="1.0" encoding="UTF-8" standalone="no"?>
<!-- Created with Inkscape (http://www.inkscape.org/) -->

<svg
   xmlns:dc="http://purl.org/dc/elements/1.1/"
   xmlns:cc="http://creativecommons.org/ns#"
   xmlns:rdf="http://www.w3.org/1999/02/22-rdf-syntax-ns#"
   xmlns:svg="http://www.w3.org/2000/svg"
   xmlns="http://www.w3.org/2000/svg"
   xmlns:sodipodi="http://sodipodi.sourceforge.net/DTD/sodipodi-0.dtd"
   xmlns:inkscape="http://www.inkscape.org/namespaces/inkscape"
   width="297.845mm"
   height="100.542mm"
   viewBox="0 0 297.845 100.542"
   version="1.1"
   id="svg8"
   inkscape:version="0.92.5 (2060ec1f9f, 2020-04-08)"
   sodipodi:docname="attempt2.svg">
  <defs
     id="defs2">
    <inkscape:path-effect
       allow_transforms="false"
       linkedpaths=""
       is_visible="true"
       id="path-effect4593"
       effect="fill_between_many" />
    <inkscape:path-effect
       vertical="false"
       scale_y_rel="false"
       prop_scale="1"
       bendpath="M -0.75595242,183.98512 H 298.60119"
       is_visible="true"
       id="path-effect4591"
       effect="bend_path" />
  </defs>
  <sodipodi:namedview
     id="base"
     pagecolor="#ffffff"
     bordercolor="#666666"
     borderopacity="1.0"
     inkscape:pageopacity="0.0"
     inkscape:pageshadow="2"
     inkscape:zoom="0.35"
     inkscape:cx="-125.71429"
     inkscape:cy="548.57143"
     inkscape:document-units="mm"
     inkscape:current-layer="layer1"
     showgrid="false"
     inkscape:window-width="1848"
     inkscape:window-height="1016"
     inkscape:window-x="72"
     inkscape:window-y="27"
     inkscape:window-maximized="1" />
  <metadata
     id="metadata5">
    <rdf:RDF>
      <cc:Work
         rdf:about="">
        <dc:format>image/svg+xml</dc:format>
        <dc:type
           rdf:resource="http://purl.org/dc/dcmitype/StillImage" />
        <dc:title></dc:title>
      </cc:Work>
    </rdf:RDF>
  </metadata>
  <g
     inkscape:label="Layer 1"
     inkscape:groupmode="layer"
     id="layer1"
     transform="translate(0,-196.458)">
    <text
       xml:space="preserve"
       style="font-style:normal;font-weight:normal;font-size:10.58333302px;line-height:1.25;font-family:sans-serif;letter-spacing:0px;word-spacing:0px;fill:#000000;fill-opacity:1;stroke:none;stroke-width:0.26458332"
       x="-320.5238"
       y="158.66072"
       id="text4579"><tspan
         sodipodi:role="line"
         id="tspan4577"
         x="-320.5238"
         y="168.02449"
         style="stroke-width:0.26458332" /></text>
    <text
       xml:space="preserve"
       style="font-style:normal;font-weight:normal;font-size:10.58333302px;line-height:1.25;font-family:sans-serif;letter-spacing:0px;word-spacing:0px;fill:#000000;fill-opacity:1;stroke:none;stroke-width:0.26458332"
       x="-215.44643"
       y="167.73215"
       id="text4591"><tspan
         sodipodi:role="line"
         id="tspan4589"
         x="-215.44643"
         y="177.09592"
         style="stroke-width:0.26458332" /></text>
    <text
       xml:space="preserve"
       style="font-style:normal;font-weight:normal;font-size:10.58333302px;line-height:1.25;font-family:sans-serif;letter-spacing:0px;word-spacing:0px;fill:#000000;fill-opacity:1;stroke:none;stroke-width:0.26458332"
       x="-224.51785"
       y="174.53572"
       id="text4627"><tspan
         sodipodi:role="line"
         id="tspan4625"
         x="-224.51785"
         y="183.89949"
         style="stroke-width:0.26458332" /></text>
    <text
       xml:space="preserve"
       style="font-style:normal;font-weight:normal;font-size:10.58333302px;line-height:1.25;font-family:sans-serif;letter-spacing:0px;word-spacing:0px;fill:#000000;fill-opacity:1;stroke:none;stroke-width:0.26458332"
       x="-225.2738"
       y="162.44049"
       id="text4631"><tspan
         sodipodi:role="line"
         id="tspan4629"
         x="-225.2738"
         y="171.80426"
         style="stroke-width:0.26458332" /></text>
    <flowRoot
       xml:space="preserve"
       id="flowRoot4637"
       style="font-style:normal;font-weight:normal;font-size:40px;line-height:1.25;font-family:sans-serif;letter-spacing:0px;word-spacing:0px;fill:#000000;fill-opacity:1;stroke:none"
       transform="matrix(0.26458333,0,0,0.26458333,0,87)"><flowRegion
         id="flowRegion4639"><rect
           id="rect4641"
           width="342.85715"
           height="60"
           x="-1037.1428"
           y="259.4151" /></flowRegion><flowPara
         id="flowPara4643" /></flowRoot>    <text
       xml:space="preserve"
       style="font-style:normal;font-weight:normal;font-size:10.58333302px;line-height:1.25;font-family:sans-serif;letter-spacing:0px;word-spacing:0px;fill:#000000;fill-opacity:1;stroke:none;stroke-width:0.26458332"
       x="-199.57143"
       y="165.46429"
       id="text4649"><tspan
         sodipodi:role="line"
         id="tspan4647"
         x="-199.57143"
         y="174.82806"
         style="stroke-width:0.26458332" /></text>
    <flowRoot
       xml:space="preserve"
       id="flowRoot4655"
       style="font-style:normal;font-weight:normal;font-size:40px;line-height:1.25;font-family:sans-serif;letter-spacing:0px;word-spacing:0px;fill:#000000;fill-opacity:1;stroke:none"
       transform="matrix(0.26458333,0,0,0.26458333,0,87)"><flowRegion
         id="flowRegion4657"><rect
           id="rect4659"
           width="402.85715"
           height="51.42857"
           x="-1042.8572"
           y="267.98651" /></flowRegion><flowPara
         id="flowPara4661" /></flowRoot>    <path
       sodipodi:type="star"
       style="fill:#ffffff;fill-opacity:1;stroke:none;stroke-width:2;stroke-miterlimit:4;stroke-dasharray:none;stroke-opacity:1"
       id="path4663"
       sodipodi:sides="3"
       sodipodi:cx="-193.5238"
       sodipodi:cy="145.05357"
       sodipodi:r1="20.647327"
       sodipodi:r2="10.323664"
       sodipodi:arg1="1.9853032"
       sodipodi:arg2="3.0325008"
       inkscape:flatsided="false"
       inkscape:rounded="0"
       inkscape:randomized="0"
       d="m -201.83928,163.95238 -1.94682,-17.77481 -1.94681,-17.77481 16.36684,7.20141 16.36685,7.20141 -14.42003,10.5734 z"
       inkscape:transform-center-x="-4.1577399"
       inkscape:transform-center-y="1.123995" />
    <path
       sodipodi:type="star"
       style="fill:#008000;fill-opacity:1;stroke:none;stroke-width:2;stroke-miterlimit:4;stroke-dasharray:none;stroke-opacity:1"
       id="path4665"
       sodipodi:sides="5"
       sodipodi:cx="-235.1012"
       sodipodi:cy="73.238098"
       sodipodi:r1="30.105515"
       sodipodi:r2="15.052756"
       sodipodi:arg1="2.068139"
       sodipodi:arg2="2.6964575"
       inkscape:flatsided="false"
       inkscape:rounded="0"
       inkscape:randomized="0"
       d="m -249.46429,99.696434 0.77719,-19.976922 -16.01591,-11.965454 19.23935,-5.434054 6.43063,-18.929564 11.11338,16.618491 19.99026,0.26634 -12.3709,15.704846 5.92403,19.094171 -18.75902,-6.912362 z"
       inkscape:transform-center-x="-7.1815502"
       inkscape:transform-center-y="0.39518132" />
    <path
       sodipodi:type="star"
       style="fill:#008000;fill-opacity:1;stroke:none;stroke-width:2;stroke-miterlimit:4;stroke-dasharray:none;stroke-opacity:1"
       id="path4669"
       sodipodi:sides="5"
       sodipodi:cx="-332.61908"
       sodipodi:cy="-77.196419"
       sodipodi:r1="10.82359"
       sodipodi:r2="5.4117951"
       sodipodi:arg1="-0.43240778"
       sodipodi:arg2="0.19591076"
       inkscape:flatsided="false"
       inkscape:rounded="0"
       inkscape:randomized="0"
       d="m -322.7917,-81.732133 -4.51911,5.589174 2.04228,6.891322 -6.7121,-2.570778 -5.92294,4.071855 0.3708,-7.178002 -5.70285,-4.374776 6.94127,-1.865471 2.39838,-6.775617 3.91914,6.025078 z"
       inkscape:transform-center-x="0.39457741"
       inkscape:transform-center-y="-0.6510719" />
    <path
       sodipodi:type="star"
       style="fill:#008000;fill-opacity:1;stroke:none;stroke-width:2;stroke-miterlimit:4;stroke-dasharray:none;stroke-opacity:1"
       id="path4671"
       sodipodi:sides="5"
       sodipodi:cx="-336.29437"
       sodipodi:cy="-81.1688"
       sodipodi:r1="16.235386"
       sodipodi:r2="8.1176929"
       sodipodi:arg1="0.82422928"
       sodipodi:arg2="1.4525478"
       inkscape:flatsided="false"
       inkscape:rounded="0"
       inkscape:randomized="0"
       d="m -325.26855,-69.251628 -10.06815,-3.856167 -8.88441,6.107784 0.5562,-10.767004 -8.55428,-6.562165 10.41191,-2.798207 3.59757,-10.163424 5.87871,9.037616 10.7777,0.280823 -6.77866,8.383761 z"
       inkscape:transform-center-x="0.59186814"
       inkscape:transform-center-y="-0.97660877" />
    <g
       id="g920"
       transform="translate(-0.75607008,66.145666)">
      <g
         inkscape:label="Layer 1"
         id="layer1-6"
         transform="translate(1.5119019,-3.4017915)">
        <path
           inkscape:connector-curvature="0"
           id="rect4588"
           d="m -0.75595242,133.71429 213.93452242,1e-5 83.91072,100.54166 -297.84524242,-10e-6 z"
           style="fill:#0000ff;fill-opacity:1;stroke:none;stroke-width:2;stroke-miterlimit:4;stroke-dasharray:none;stroke-opacity:1" />
      </g>
      <g
         id="g5958">
        <g
           id="text4583"
           style="font-style:normal;font-weight:normal;font-size:10.58333302px;line-height:1.25;font-family:sans-serif;letter-spacing:0px;word-spacing:0px;fill:#ffffff;fill-opacity:1;stroke:none;stroke-width:0.26458332"
           aria-label="MAGOSO AIRWAYS">
          <path
             inkscape:connector-curvature="0"
             id="path5979"
             style="font-style:normal;font-variant:normal;font-weight:normal;font-stretch:normal;font-size:22.57777786px;font-family:'Carlo Melow';-inkscape-font-specification:'Carlo Melow, Normal';font-variant-ligatures:normal;font-variant-caps:normal;font-variant-numeric:normal;font-feature-settings:normal;text-align:start;writing-mode:lr-tb;text-anchor:start;fill:#ffffff;stroke-width:0.26458332"
             d="m 82.280676,187.29239 q -0.275608,0 -0.451997,-0.17638 -0.176389,-0.16537 -0.209462,-0.44098 -0.352777,-3.52777 -0.38585,-5.63342 -0.02205,-2.11666 -0.02205,-2.4033 0,-3.62699 0.63941,-7.13272 0.03307,-0.19844 0.374826,-0.34176 0.363802,-0.15434 0.903993,-0.15434 0.540191,0 0.71658,0.12127 0.220486,0.15434 0.264583,0.41893 1.20165,6.70277 2.458421,10.96918 0.551215,-2.19384 1.25677,-4.33255 1.267796,-4.0349 2.811198,-6.8461 0.187414,-0.3197 0.551216,-0.3197 l 1.124479,0.011 q 1.124479,0 1.124479,0.74966 -0.606337,5.25859 -0.606337,9.55807 0,2.46944 0.209462,4.99401 0,0.61736 -0.551215,0.8158 -0.297657,0.11024 -0.606337,0.11024 -0.540191,0 -0.87092,-0.13229 -0.319705,-0.13229 -0.352778,-0.61736 -0.220486,-2.62379 -0.220486,-5.15938 0,-3.41753 0.407899,-7.59574 -0.94809,2.12769 -1.81901,4.81762 -1.080382,3.35139 -1.807986,6.80199 -0.110243,0.4961 -0.606337,0.4961 -0.56224,0 -0.771702,-0.11024 -0.198437,-0.12127 -0.319704,-0.47405 -1.300868,-3.57187 -2.436372,-9.02891 -0.264583,2.94349 -0.264583,6.79098 0,1.79696 0.06615,3.60494 0,0.26459 -0.176389,0.44098 -0.165365,0.18741 -0.429948,0.19843 z" />
          <path
             inkscape:connector-curvature="0"
             id="path5981"
             style="font-style:normal;font-variant:normal;font-weight:normal;font-stretch:normal;font-size:22.57777786px;font-family:'Carlo Melow';-inkscape-font-specification:'Carlo Melow, Normal';font-variant-ligatures:normal;font-variant-caps:normal;font-variant-numeric:normal;font-feature-settings:normal;text-align:start;writing-mode:lr-tb;text-anchor:start;fill:#ffffff;stroke-width:0.26458332"
             d="m 95.950815,187.17113 q -0.63941,0 -0.63941,-0.63941 0,-0.16537 0.06615,-0.71658 0.352778,-3.2632 1.003212,-6.77995 0.71658,-3.85851 2.138715,-7.43038 0.220486,-0.56224 1.598518,-0.57327 0.56224,0 0.98117,0.0882 0.42994,0.0882 0.56224,0.45199 1.12447,3.627 1.76388,7.2099 0.63941,3.5829 1.01424,7.39731 0,0.4079 -0.50712,0.65043 -0.50712,0.25356 -1.02526,0.25356 -0.74965,0 -0.8158,-0.55121 -0.29765,-3.04271 -0.7717,-5.93108 l -3.693137,0.49609 q -0.606336,2.75608 -1.058333,5.54523 -0.05512,0.26458 -0.242535,0.39687 -0.176388,0.1323 -0.374826,0.1323 z m 5.137325,-7.94853 q -0.51814,-2.82222 -1.311891,-5.63342 -1.014236,2.7671 -1.719792,5.63342 z" />
          <path
             inkscape:connector-curvature="0"
             id="path5983"
             style="font-style:normal;font-variant:normal;font-weight:normal;font-stretch:normal;font-size:22.57777786px;font-family:'Carlo Melow';-inkscape-font-specification:'Carlo Melow, Normal';font-variant-ligatures:normal;font-variant-caps:normal;font-variant-numeric:normal;font-feature-settings:normal;text-align:start;writing-mode:lr-tb;text-anchor:start;fill:#ffffff;stroke-width:0.26458332"
             d="m 114.63701,187.92078 q -0.26458,0 -0.44097,-0.20946 -0.17639,-0.19844 -0.17639,-0.47405 l 0.011,-1.32291 q -0.42995,0.60633 -1.00321,0.95911 -0.66146,0.39688 -1.66467,0.39688 -2.77813,0 -4.18924,-2.54662 -1.08038,-1.9513 -1.08038,-4.69635 0,-0.452 0.0661,-1.44419 0.0662,-0.99218 0.50712,-2.44739 0.33073,-1.10243 0.83785,-2.02848 0.85989,-1.5875 2.11666,-2.42534 1.03629,-0.68351 2.33716,-0.68351 1.48828,0 2.32613,1.12448 0.83784,1.11345 0.83784,2.80017 0,0.98117 -0.3638,2.01745 -0.3638,1.02526 -1.23472,1.57648 -0.16537,0.0882 -0.31971,0.0882 -0.35277,0 -0.55121,-0.3197 -0.0882,-0.15434 -0.0882,-0.31971 0,-0.35278 0.31971,-0.55121 0.44097,-0.25356 0.68351,-0.91502 0.2756,-0.72761 0.2756,-1.49931 0,-0.94809 -0.3197,-1.68672 -0.4079,-0.90399 -1.15755,-0.90399 -0.7717,0 -1.40009,0.78273 -0.62839,0.7717 -1.08038,1.9954 -0.92604,2.49149 -0.92604,5.56727 0,2.41432 0.76067,3.83646 0.7717,1.41111 1.95131,1.41111 0.58428,0 1.33394,-1.01424 0.76067,-1.02526 1.05833,-3.24114 l -2.80017,0.38585 q -0.22049,0 -0.38585,-0.18741 -0.16537,-0.18742 -0.16537,-0.62839 0,-0.79375 0.46302,-0.80477 l 3.77031,-0.0331 q 0.50712,0 0.76068,0.12127 0.26458,0.11024 0.26458,0.41892 l -0.6835,6.31693 q -0.0331,0.26458 -0.22049,0.41892 -0.18741,0.16537 -0.42995,0.16537 z" />
          <path
             inkscape:connector-curvature="0"
             id="path5985"
             style="font-style:normal;font-variant:normal;font-weight:normal;font-stretch:normal;font-size:22.57777786px;font-family:'Carlo Melow';-inkscape-font-specification:'Carlo Melow, Normal';font-variant-ligatures:normal;font-variant-caps:normal;font-variant-numeric:normal;font-feature-settings:normal;text-align:start;writing-mode:lr-tb;text-anchor:start;fill:#ffffff;stroke-width:0.26458332"
             d="m 123.66592,187.07191 q -3.36241,0 -4.8066,-3.27422 -0.68351,-1.5434 -0.68351,-3.69314 0,-2.22691 0.79375,-4.29948 1.01424,-2.66788 1.86311,-2.66788 0.11025,0 0.24254,0.0441 0.58429,-0.91501 1.44418,-1.44418 0.8599,-0.52917 1.96233,-0.52917 2.32613,0 3.72621,1.81901 0.69453,0.89297 1.10243,2.10564 0.50712,1.52136 0.50712,3.25218 0,1.4552 -0.37482,2.94348 -0.60634,2.42535 -1.94028,3.95773 -1.56545,1.78594 -3.83646,1.78594 z m 0.0331,-1.28985 q 1.51033,0 2.73403,-1.71979 1.01424,-1.43316 1.5434,-3.42856 0.28663,-1.10243 0.28663,-2.06154 0,-1.84106 -0.67248,-3.56085 -0.4079,-1.03629 -1.11345,-1.74184 -0.76068,-0.74966 -1.80799,-0.74966 -1.08038,0 -1.81901,1.12448 -0.73863,1.12448 -0.73863,2.38125 0,0.80478 0.39688,1.69775 0.4079,0.89297 0.83784,1.0914 0.44098,0.19844 0.65044,0.19844 0.52916,0 1.15755,-0.59531 0.19844,-0.17639 0.44097,-0.17639 0.24254,0 0.42995,0.19844 0.18741,0.18741 0.18741,0.41892 0,0.26458 -0.17639,0.44097 -1.02526,1.02526 -2.271,1.02526 -0.80478,0 -1.47726,-0.41892 -0.66146,-0.42995 -1.51033,-1.60955 -0.0992,0.59531 -0.0992,1.42214 0,0.97013 0.18742,2.12769 0.35277,2.29305 1.43316,3.36241 0.56223,0.57326 1.40008,0.57326 z" />
          <path
             inkscape:connector-curvature="0"
             id="path5987"
             style="font-style:normal;font-variant:normal;font-weight:normal;font-stretch:normal;font-size:22.57777786px;font-family:'Carlo Melow';-inkscape-font-specification:'Carlo Melow, Normal';font-variant-ligatures:normal;font-variant-caps:normal;font-variant-numeric:normal;font-feature-settings:normal;text-align:start;writing-mode:lr-tb;text-anchor:start;fill:#ffffff;stroke-width:0.26458332"
             d="m 136.48719,186.81835 q -2.73403,-0.0221 -3.20807,-2.75608 l -0.011,-0.0882 q 0,-0.20946 0.13229,-0.38585 0.18742,-0.25356 0.48507,-0.25356 0.28663,0 0.44097,0.14331 0.16537,0.1323 0.20947,0.39688 0.12126,0.76068 0.54019,1.21267 0.41892,0.44098 0.95911,0.44098 0.51814,0 1.01424,-0.71658 0.49609,-0.71658 0.50712,-1.65365 0,-0.97014 -2.16077,-2.3592 -2.16076,-1.40009 -2.88837,-2.07257 -1.03628,-0.92604 -1.03628,-2.50252 0,-1.52135 0.71658,-2.60173 0.59531,-0.89297 1.46623,-1.43316 1.25677,-0.78273 2.8112,-0.78273 1.70877,0 2.64583,1.03628 0.94809,1.03629 0.94809,2.62379 0,1.32292 -0.34175,1.56545 -0.18741,0.13229 -0.39687,0.13229 -0.31971,0 -0.4961,-0.25356 -0.13229,-0.18741 -0.13229,-0.38585 l 0.011,-0.11024 q 0.0772,-0.48507 0.0772,-0.89297 0,-0.54019 -0.13229,-0.94809 -0.23151,-0.71658 -0.73863,-1.04731 -0.50711,-0.34175 -1.12448,-0.34175 -1.12447,0 -2.02847,1.14653 -0.89297,1.14652 -0.89297,2.61276 0,0.78272 0.38585,1.28984 0.39688,0.50712 3.08681,1.89618 2.60174,1.36701 2.60174,3.45061 0,1.42213 -1.08039,2.52456 -1.0914,1.10243 -2.37022,1.11346 z" />
          <path
             inkscape:connector-curvature="0"
             id="path5989"
             style="font-style:normal;font-variant:normal;font-weight:normal;font-stretch:normal;font-size:22.57777786px;font-family:'Carlo Melow';-inkscape-font-specification:'Carlo Melow, Normal';font-variant-ligatures:normal;font-variant-caps:normal;font-variant-numeric:normal;font-feature-settings:normal;text-align:start;writing-mode:lr-tb;text-anchor:start;fill:#ffffff;stroke-width:0.26458332"
             d="m 147.4233,187.07191 q -3.36242,0 -4.8066,-3.27422 -0.68351,-1.5434 -0.68351,-3.69314 0,-2.22691 0.79375,-4.29948 1.01424,-2.66788 1.86311,-2.66788 0.11024,0 0.24253,0.0441 0.58429,-0.91501 1.44419,-1.44418 0.85989,-0.52917 1.96233,-0.52917 2.32612,0 3.72621,1.81901 0.69453,0.89297 1.10243,2.10564 0.50712,1.52136 0.50712,3.25218 0,1.4552 -0.37483,2.94348 -0.60633,2.42535 -1.94028,3.95773 -1.56545,1.78594 -3.83645,1.78594 z m 0.0331,-1.28985 q 1.51033,0 2.73403,-1.71979 1.01423,-1.43316 1.5434,-3.42856 0.28663,-1.10243 0.28663,-2.06154 0,-1.84106 -0.67248,-3.56085 -0.4079,-1.03629 -1.11346,-1.74184 -0.76067,-0.74966 -1.80798,-0.74966 -1.08038,0 -1.81901,1.12448 -0.73863,1.12448 -0.73863,2.38125 0,0.80478 0.39687,1.69775 0.4079,0.89297 0.83785,1.0914 0.44097,0.19844 0.65044,0.19844 0.52916,0 1.15755,-0.59531 0.19844,-0.17639 0.44097,-0.17639 0.24253,0 0.42995,0.19844 0.18741,0.18741 0.18741,0.41892 0,0.26458 -0.17639,0.44097 -1.02526,1.02526 -2.271,1.02526 -0.80478,0 -1.47726,-0.41892 -0.66146,-0.42995 -1.51033,-1.60955 -0.0992,0.59531 -0.0992,1.42214 0,0.97013 0.18741,2.12769 0.35278,2.29305 1.43316,3.36241 0.56224,0.57326 1.40009,0.57326 z" />
          <path
             inkscape:connector-curvature="0"
             id="path5991"
             style="font-style:normal;font-variant:normal;font-weight:normal;font-stretch:normal;font-size:22.57777786px;font-family:'Carlo Melow';-inkscape-font-specification:'Carlo Melow, Normal';font-variant-ligatures:normal;font-variant-caps:normal;font-variant-numeric:normal;font-feature-settings:normal;text-align:start;writing-mode:lr-tb;text-anchor:start;fill:#ffffff;stroke-width:0.26458332"
             d="m 159.72642,187.17113 q -0.63941,0 -0.63941,-0.63941 0,-0.16537 0.0662,-0.71658 0.35278,-3.2632 1.00321,-6.77995 0.71658,-3.85851 2.13872,-7.43038 0.22048,-0.56224 1.59852,-0.57327 0.56224,0 0.98116,0.0882 0.42995,0.0882 0.56224,0.45199 1.12448,3.627 1.76389,7.2099 0.63941,3.5829 1.01424,7.39731 0,0.4079 -0.50712,0.65043 -0.50712,0.25356 -1.02526,0.25356 -0.74965,0 -0.8158,-0.55121 -0.29766,-3.04271 -0.7717,-5.93108 l -3.69314,0.49609 q -0.60634,2.75608 -1.05834,5.54523 -0.0551,0.26458 -0.24253,0.39687 -0.17639,0.1323 -0.37483,0.1323 z m 5.13733,-7.94853 q -0.51814,-2.82222 -1.31189,-5.63342 -1.01424,2.7671 -1.7198,5.63342 z" />
          <path
             inkscape:connector-curvature="0"
             id="path5993"
             style="font-style:normal;font-variant:normal;font-weight:normal;font-stretch:normal;font-size:22.57777786px;font-family:'Carlo Melow';-inkscape-font-specification:'Carlo Melow, Normal';font-variant-ligatures:normal;font-variant-caps:normal;font-variant-numeric:normal;font-feature-settings:normal;text-align:start;writing-mode:lr-tb;text-anchor:start;fill:#ffffff;stroke-width:0.26458332"
             d="m 170.36487,187.55698 q -0.49609,0 -0.49609,-1.11346 0,-0.24253 0.15434,-0.3638 0.16537,-0.13229 0.39688,-0.13229 l 1.46623,0.0221 q -0.17639,-2.33716 -0.17639,-4.61919 0,-4.01284 0.56224,-9.073 l -1.87413,-0.0331 q -0.22049,-0.011 -0.37483,-0.17639 -0.15434,-0.16537 -0.15434,-0.39688 0,-0.45199 0.55122,-0.49609 l 5.65547,-0.44097 q 0.46302,0 0.48506,1.0914 0,0.26459 -0.16536,0.39688 -0.15434,0.13229 -0.38585,0.13229 l -1.35599,-0.022 q -0.55122,4.88377 -0.55122,8.97379 0,2.32612 0.18742,4.70737 l 1.74184,0.0331 q 0.27561,0.011 0.39687,0.13229 0.12127,0.12127 0.13229,0.41892 -0.011,0.22049 -0.16536,0.3638 -0.15434,0.14332 -0.38585,0.16537 z" />
          <path
             inkscape:connector-curvature="0"
             id="path5995"
             style="font-style:normal;font-variant:normal;font-weight:normal;font-stretch:normal;font-size:22.57777786px;font-family:'Carlo Melow';-inkscape-font-specification:'Carlo Melow, Normal';font-variant-ligatures:normal;font-variant-caps:normal;font-variant-numeric:normal;font-feature-settings:normal;text-align:start;writing-mode:lr-tb;text-anchor:start;fill:#ffffff;stroke-width:0.26458332"
             d="m 178.00472,186.63094 q -0.59531,0 -0.89297,-0.1323 -0.28663,-0.14331 -0.33073,-0.56224 -0.22048,-2.40329 -0.22048,-4.75147 0,-4.09002 0.62838,-8.96276 0.0772,-0.57327 1.23473,-0.57327 1.1355,0 1.1355,0.69454 -0.16537,1.31189 -0.28663,2.60173 1.74184,-3.28524 3.9026,-3.28524 1.28985,0 2.0836,0.83785 0.80477,0.83784 0.80477,2.38125 0,0.39687 -0.0551,0.78272 -0.28663,1.97335 -1.32292,3.69314 -0.73863,1.27882 -1.9072,2.32613 -1.16858,1.03629 -2.67891,1.27882 -0.0441,0 -0.0772,0.011 1.10243,0.7276 2.62379,0.7276 1.05833,0 1.88515,-0.48507 0.17639,-0.11024 0.3638,-0.11024 0.31971,0 0.47405,0.23151 0.15434,0.23151 0.15434,0.41892 0,0.31971 -0.29766,0.51814 -0.67248,0.42995 -1.67569,0.69454 -0.99219,0.25355 -1.68672,0.25355 -1.74184,0 -2.8112,-0.78272 0.0331,0.66146 0.0992,1.34496 0,0.84888 -1.14653,0.84888 z m 0.95912,-5.00504 q 1.37804,0 2.64583,-1.70877 1.16858,-1.56545 1.79696,-3.51675 0.3638,-1.16858 0.3638,-2.0395 0,-1.34496 -0.92604,-1.34496 -1.14653,0 -2.19383,2.06154 -0.82683,1.62058 -1.35599,3.75929 -0.22049,0.87092 -0.35278,2.78915 z" />
          <path
             inkscape:connector-curvature="0"
             id="path5997"
             style="font-style:normal;font-variant:normal;font-weight:normal;font-stretch:normal;font-size:22.57777786px;font-family:'Carlo Melow';-inkscape-font-specification:'Carlo Melow, Normal';font-variant-ligatures:normal;font-variant-caps:normal;font-variant-numeric:normal;font-feature-settings:normal;text-align:start;writing-mode:lr-tb;text-anchor:start;fill:#ffffff;stroke-width:0.26458332"
             d="m 190.29682,187.19318 q -0.8599,0 -1.12448,-1.01424 -0.89297,-3.56085 -1.35599,-7.06658 -0.452,-3.50573 -0.65043,-7.2099 0.011,-0.37482 0.50711,-0.60633 0.4961,-0.24254 1.01424,-0.24254 0.8158,0 0.84887,0.59531 0.35278,6.58151 1.44419,11.80704 0.62838,-6.60356 2.19383,-11.21172 0.20946,-0.65044 0.50712,-0.92604 0.30868,-0.27561 0.89297,-0.28664 0.41892,0 0.70555,0.18742 0.28664,0.17639 0.33073,0.42994 0.61736,6.73586 1.96233,12.03855 0.67248,-3.2191 1.77491,-6.29488 1.11346,-3.08681 2.29306,-5.82084 0.18741,-0.41892 0.60634,-0.41892 0.2756,0 0.45199,0.15434 0.17639,0.14332 0.17639,0.48507 0,0.11024 -0.0331,0.20946 -1.25677,3.41754 -2.25998,6.94531 -0.99219,3.51676 -1.47726,7.12171 -0.0882,0.51814 -0.51814,0.80477 -0.42995,0.29766 -1.00322,0.29766 -0.78272,0 -1.21267,-0.20947 -0.41892,-0.19843 -0.56224,-0.73862 -1.56545,-5.42396 -2.19384,-10.92509 -1.25677,5.28064 -1.56545,10.68255 -0.011,0.34176 -0.42994,0.7717 -0.41893,0.44098 -1.32292,0.44098 z" />
          <path
             inkscape:connector-curvature="0"
             id="path5999"
             style="font-style:normal;font-variant:normal;font-weight:normal;font-stretch:normal;font-size:22.57777786px;font-family:'Carlo Melow';-inkscape-font-specification:'Carlo Melow, Normal';font-variant-ligatures:normal;font-variant-caps:normal;font-variant-numeric:normal;font-feature-settings:normal;text-align:start;writing-mode:lr-tb;text-anchor:start;fill:#ffffff;stroke-width:0.26458332"
             d="m 203.51497,187.17113 q -0.63941,0 -0.63941,-0.63941 0,-0.16537 0.0661,-0.71658 0.35278,-3.2632 1.00321,-6.77995 0.71658,-3.85851 2.13872,-7.43038 0.22049,-0.56224 1.59852,-0.57327 0.56224,0 0.98117,0.0882 0.42994,0.0882 0.56224,0.45199 1.12448,3.627 1.76389,7.2099 0.6394,3.5829 1.01423,7.39731 0,0.4079 -0.50712,0.65043 -0.50711,0.25356 -1.02526,0.25356 -0.74965,0 -0.8158,-0.55121 -0.29765,-3.04271 -0.7717,-5.93108 l -3.69314,0.49609 q -0.60634,2.75608 -1.05833,5.54523 -0.0551,0.26458 -0.24254,0.39687 -0.17639,0.1323 -0.37482,0.1323 z m 5.13732,-7.94853 q -0.51814,-2.82222 -1.31189,-5.63342 -1.01424,2.7671 -1.71979,5.63342 z" />
          <path
             inkscape:connector-curvature="0"
             id="path6001"
             style="font-style:normal;font-variant:normal;font-weight:normal;font-stretch:normal;font-size:22.57777786px;font-family:'Carlo Melow';-inkscape-font-specification:'Carlo Melow, Normal';font-variant-ligatures:normal;font-variant-caps:normal;font-variant-numeric:normal;font-feature-settings:normal;text-align:start;writing-mode:lr-tb;text-anchor:start;fill:#ffffff;stroke-width:0.26458332"
             d="m 221.19796,187.25932 q -0.60634,0 -0.89297,-0.16536 -0.28663,-0.16537 -0.33073,-0.58429 -0.23151,-2.60174 -0.23151,-5.13733 l 0.0221,-1.21267 q -1.10243,1.59852 -2.72301,1.59852 -1.96232,0 -2.77812,-1.92925 -0.60634,-1.43316 -0.60634,-3.627 0,-2.14974 0.39688,-4.04592 0.0551,-0.29765 0.38585,-0.39687 0.33073,-0.0992 0.76068,-0.0992 0.34175,0 0.54019,0.15434 0.20946,0.14331 0.20946,0.41892 -0.58429,2.98759 -0.58429,4.93889 0,3.31832 1.67569,3.31832 1.77492,0 2.41433,-3.16398 0.63941,-3.175 0.92604,-5.67752 0.0772,-0.61736 1.23472,-0.61736 1.1355,0 1.1355,0.74966 -0.61736,5.25859 -0.61736,9.55807 0,2.46944 0.22049,4.99401 0,0.61736 -0.55122,0.8158 -0.29765,0.11024 -0.60633,0.11024 z" />
          <path
             inkscape:connector-curvature="0"
             id="path6003"
             style="font-style:normal;font-variant:normal;font-weight:normal;font-stretch:normal;font-size:22.57777786px;font-family:'Carlo Melow';-inkscape-font-specification:'Carlo Melow, Normal';font-variant-ligatures:normal;font-variant-caps:normal;font-variant-numeric:normal;font-feature-settings:normal;text-align:start;writing-mode:lr-tb;text-anchor:start;fill:#ffffff;stroke-width:0.26458332"
             d="m 229.64257,186.81835 q -2.73403,-0.0221 -3.20807,-2.75608 l -0.011,-0.0882 q 0,-0.20946 0.13229,-0.38585 0.18742,-0.25356 0.48507,-0.25356 0.28663,0 0.44097,0.14331 0.16537,0.1323 0.20947,0.39688 0.12126,0.76068 0.54019,1.21267 0.41892,0.44098 0.95911,0.44098 0.51814,0 1.01424,-0.71658 0.49609,-0.71658 0.50712,-1.65365 0,-0.97014 -2.16077,-2.3592 -2.16076,-1.40009 -2.88837,-2.07257 -1.03628,-0.92604 -1.03628,-2.50252 0,-1.52135 0.71658,-2.60173 0.59531,-0.89297 1.46623,-1.43316 1.25677,-0.78273 2.8112,-0.78273 1.70877,0 2.64583,1.03628 0.94809,1.03629 0.94809,2.62379 0,1.32292 -0.34175,1.56545 -0.18741,0.13229 -0.39687,0.13229 -0.31971,0 -0.4961,-0.25356 -0.13229,-0.18741 -0.13229,-0.38585 l 0.011,-0.11024 q 0.0772,-0.48507 0.0772,-0.89297 0,-0.54019 -0.13229,-0.94809 -0.23151,-0.71658 -0.73863,-1.04731 -0.50711,-0.34175 -1.12447,-0.34175 -1.12448,0 -2.02848,1.14653 -0.89297,1.14652 -0.89297,2.61276 0,0.78272 0.38585,1.28984 0.39688,0.50712 3.08681,1.89618 2.60174,1.36701 2.60174,3.45061 0,1.42213 -1.08039,2.52456 -1.0914,1.10243 -2.37022,1.11346 z" />
        </g>
        <g
           id="text4587"
           style="font-style:normal;font-weight:normal;font-size:10.58333302px;line-height:1.25;font-family:sans-serif;letter-spacing:0px;word-spacing:0px;fill:#ffffff;fill-opacity:1;stroke:none;stroke-width:0.26458332"
           aria-label="AFRICA'S; FINEST">
          <path
             inkscape:connector-curvature="0"
             id="path6006"
             style="font-style:normal;font-variant:normal;font-weight:normal;font-stretch:normal;font-size:22.57777786px;font-family:Karumbi;-inkscape-font-specification:'Karumbi, Normal';font-variant-ligatures:normal;font-variant-caps:normal;font-variant-numeric:normal;font-feature-settings:normal;text-align:start;writing-mode:lr-tb;text-anchor:start;fill:#ffffff;stroke-width:0.26458332"
             d="m 99.193242,207.6045 q 0.383822,1.67075 0.428977,2.48355 -0.04516,0.42898 -0.428977,0.47414 -0.158045,0 -0.316089,-0.11289 -0.135467,-0.0903 -0.180622,-0.49671 -0.09031,-0.97085 -0.338667,-2.00943 -1.2192,0.0677 -1.6256,0.24836 0.04515,0.24836 -0.180622,0.38382 -0.225778,0.13547 -0.519289,0.0226 l -0.112889,-0.11289 q -0.248356,0.45156 -0.474133,0.90311 -0.225778,0.42898 -0.383823,0.69991 -0.135466,0.27094 -0.135466,0.29351 l -0.02258,-0.0226 q -0.270933,0.31609 -0.474133,0.2032 -0.383823,-0.2032 -0.316089,-0.58703 0.587022,-1.30951 1.2192,-2.57386 0.654755,-1.28694 1.016,-2.12231 0.383822,-0.85796 0.541866,-1.24178 0.180623,-0.4064 0.451556,-0.72249 -0.09031,-0.18062 0.04515,-0.38382 0.135467,-0.2032 0.428978,-0.24836 0.564445,0.11289 0.519289,0.6096 0.383822,0.67734 0.451556,1.35467 0.06773,0.67733 0.09031,1.10631 0.04515,0.42898 0.09031,0.69991 0.04515,0.33867 0.112889,0.67733 0.225778,0.2032 0.112889,0.47414 z m -2.686756,-0.31609 q 0.428978,-0.15805 1.648178,-0.22578 -0.02258,-0.0677 -0.02258,-0.13547 0,-0.0903 -0.06773,-0.4064 -0.06773,-0.31608 -0.112889,-0.88053 -0.04516,-0.56444 -0.158045,-1.12889 -0.06773,0.11289 -0.135466,0.22578 -0.09031,0.0903 -0.225778,0.42898 -0.632178,1.51271 -0.92569,2.12231 z" />
          <path
             inkscape:connector-curvature="0"
             id="path6008"
             style="font-style:normal;font-variant:normal;font-weight:normal;font-stretch:normal;font-size:22.57777786px;font-family:Karumbi;-inkscape-font-specification:'Karumbi, Normal';font-variant-ligatures:normal;font-variant-caps:normal;font-variant-numeric:normal;font-feature-settings:normal;text-align:start;writing-mode:lr-tb;text-anchor:start;fill:#ffffff;stroke-width:0.26458332"
             d="m 107.88565,207.22068 q 0.38382,0.13546 0.38382,0.45155 0,0.36125 -0.4064,0.45156 -1.73849,0.0451 -3.6576,0.63217 -0.18062,0.0452 -0.33866,0.11289 -0.13547,0.0677 -0.29352,0.13547 -0.6096,2.00942 -1.12888,2.66418 -0.36125,0.18062 -0.6096,-0.0677 -0.22578,-0.22577 -0.0452,-0.58702 0.27093,-0.29351 0.67733,-1.44498 h -0.0677 q -0.36124,-0.18062 -0.29351,-0.6096 0.13547,-0.33866 0.74507,-0.63217 0.67733,-2.50614 0.76764,-4.08658 -0.15804,-0.13547 -0.15804,-0.33867 0,-0.2032 0.15804,-0.31609 v -0.0903 q 0.0903,-0.36124 0.4064,-0.38382 0.33867,-0.0452 0.47413,0.31609 1.15147,-0.11289 2.2352,-0.31609 1.08374,-0.22578 2.2352,-0.27093 0.38383,0.13546 0.38383,0.45155 0,0.36125 -0.4064,0.45156 -1.12889,0.0452 -2.2352,0.24835 -1.08374,0.2032 -2.19005,0.31609 -0.0903,1.33209 -0.65475,3.61245 1.35466,-0.4064 2.57386,-0.54187 1.2192,-0.15804 1.44498,-0.15804 z" />
          <path
             inkscape:connector-curvature="0"
             id="path6010"
             style="font-style:normal;font-variant:normal;font-weight:normal;font-stretch:normal;font-size:22.57777786px;font-family:Karumbi;-inkscape-font-specification:'Karumbi, Normal';font-variant-ligatures:normal;font-variant-caps:normal;font-variant-numeric:normal;font-feature-settings:normal;text-align:start;writing-mode:lr-tb;text-anchor:start;fill:#ffffff;stroke-width:0.26458332"
             d="m 112.51406,204.94032 q 0.0903,-0.63218 0.0903,-1.19662 -0.31609,-0.0677 -0.36124,-0.38382 -0.0226,-0.33867 0.36124,-0.49672 0.0226,0 0.11289,-0.0452 0.15804,-0.22578 0.47413,-0.15805 0.83538,-0.31608 1.24178,-0.29351 0.42898,0.0226 0.79022,0.0452 0.94827,0.0677 1.30951,0.24835 0.38383,0.15805 0.67734,0.27094 0.31609,0.0903 0.51929,0.31609 0.2032,0.2032 0.38382,0.38382 0.2032,0.18062 0.33867,0.45155 0.13546,0.27094 0.11288,0.6096 0,0.33867 -0.18062,0.63218 -0.33866,0.6096 -0.94826,0.90311 -0.29352,0.13547 -0.69992,0.33867 -0.4064,0.18062 -0.88053,0.36124 0.88053,0.42898 1.6256,0.90312 0.76765,0.45155 1.06116,0.6096 0.31609,0.15804 0.58702,0.27093 0.29351,0.0903 0.56444,0.22578 0.67734,0.29351 0.88054,0.65475 0.18062,0.54187 -0.38383,0.65476 h -0.0677 q -0.29351,-0.0677 -0.4064,-0.22578 -1.26435,-0.65476 -2.50613,-1.37724 -1.24178,-0.74507 -2.57387,-1.26436 -0.0451,-0.0226 -0.0903,-0.0226 -0.0452,-0.0226 -0.0903,-0.0452 -0.85796,0.18062 -1.51271,-0.0452 -0.65476,2.28036 -0.72249,3.4544 -0.0452,0.42898 -0.42898,0.47413 -0.15804,0 -0.31609,-0.11288 -0.13546,-0.0903 -0.15804,-0.33867 0.0903,-1.49013 0.45155,-2.91253 0.36125,-1.44498 0.74507,-2.86738 z m 1.06116,-1.51271 q 0.0677,1.06115 -0.29352,2.61902 0.58703,0.0452 1.35467,0.31609 2.12231,-0.51929 2.66418,-1.19662 0.13547,-0.18062 0.29351,-0.33867 -0.0226,-0.99342 -1.4224,-1.37724 -1.08373,-0.29351 -2.21262,-0.11289 -0.11289,0.0226 -0.2032,0.0452 -0.0903,0 -0.18062,0.0452 z" />
          <path
             inkscape:connector-curvature="0"
             id="path6012"
             style="font-style:normal;font-variant:normal;font-weight:normal;font-stretch:normal;font-size:22.57777786px;font-family:Karumbi;-inkscape-font-specification:'Karumbi, Normal';font-variant-ligatures:normal;font-variant-caps:normal;font-variant-numeric:normal;font-feature-settings:normal;text-align:start;writing-mode:lr-tb;text-anchor:start;fill:#ffffff;stroke-width:0.26458332"
             d="m 122.8095,209.8397 q 0.38382,0.13546 0.38382,0.47413 0,0.33867 -0.4064,0.42898 -0.36125,0 -0.69991,0.0452 -0.31609,0.0452 -0.67734,0.0903 -0.0226,0.0903 -0.11289,0.27093 -0.22577,0.27093 -0.49671,0.2032 -0.24835,-0.0677 -0.31609,-0.33867 -0.33866,0.0903 -0.51928,-0.22578 -0.15805,-0.29351 0.11288,-0.49671 0.27094,-0.2032 0.69992,-0.27093 0.49671,-1.58044 0.36124,-4.4704 -0.0452,-0.76764 -0.0452,-1.4224 h -0.45155 q -0.24836,-0.0226 -0.36125,-0.18062 -0.0903,-0.13547 -0.0903,-0.29351 0.0226,-0.38383 0.47414,-0.42898 h 0.0903 q 1.49013,-0.15805 1.8288,-0.15805 0.38382,0.13547 0.38382,0.45156 -0.0226,0.45156 -0.69991,0.47413 -0.13547,0 -0.27093,0.0226 0,0.65476 0.0226,1.39982 0,0.74507 0.0226,1.51271 -0.0226,1.76107 -0.29351,2.95769 0.33867,-0.0452 0.6096,-0.0452 z" />
          <path
             inkscape:connector-curvature="0"
             id="path6014"
             style="font-style:normal;font-variant:normal;font-weight:normal;font-stretch:normal;font-size:22.57777786px;font-family:Karumbi;-inkscape-font-specification:'Karumbi, Normal';font-variant-ligatures:normal;font-variant-caps:normal;font-variant-numeric:normal;font-feature-settings:normal;text-align:start;writing-mode:lr-tb;text-anchor:start;fill:#ffffff;stroke-width:0.26458332"
             d="m 132.90176,209.99774 q 0.49671,0.11289 0.45155,0.47414 -0.0226,0.36124 -0.42897,0.45155 -0.4064,0.0903 -1.06116,0.18062 -0.65475,0.0903 -1.39982,0.15805 -0.74507,0.0677 -1.53529,0.0903 -0.79022,0 -1.49013,-0.11289 -1.58045,-0.22578 -2.12231,-0.99342 -0.51929,-0.76765 -0.47414,-1.6256 0.0677,-0.85796 0.54187,-1.67076 0.47413,-0.83538 1.24178,-1.55786 0.76764,-0.72249 1.67075,-1.26436 1.96427,-1.19662 3.40925,-1.15147 0.56444,0.15805 0.31609,0.67734 -0.29352,0.8128 -0.74507,0.67733 -0.27093,-0.0903 -0.33867,-0.36124 -1.12889,0.24835 -2.59644,1.24177 -2.30294,1.55787 -2.59645,3.13831 -0.15804,0.83538 0.29351,1.33209 0.45156,0.49671 1.28694,0.65476 0.83538,0.15804 1.80622,0.13547 1.80622,-0.0452 3.49956,-0.4064 z" />
          <path
             inkscape:connector-curvature="0"
             id="path6016"
             style="font-style:normal;font-variant:normal;font-weight:normal;font-stretch:normal;font-size:22.57777786px;font-family:Karumbi;-inkscape-font-specification:'Karumbi, Normal';font-variant-ligatures:normal;font-variant-caps:normal;font-variant-numeric:normal;font-feature-settings:normal;text-align:start;writing-mode:lr-tb;text-anchor:start;fill:#ffffff;stroke-width:0.26458332"
             d="m 141.02975,207.6045 q 0.38382,1.67075 0.42898,2.48355 -0.0452,0.42898 -0.42898,0.47414 -0.15805,0 -0.31609,-0.11289 -0.13547,-0.0903 -0.18062,-0.49671 -0.0903,-0.97085 -0.33867,-2.00943 -1.2192,0.0677 -1.6256,0.24836 0.0452,0.24836 -0.18062,0.38382 -0.22578,0.13547 -0.51929,0.0226 l -0.11289,-0.11289 q -0.24836,0.45156 -0.47413,0.90311 -0.22578,0.42898 -0.38383,0.69991 -0.13546,0.27094 -0.13546,0.29351 l -0.0226,-0.0226 q -0.27093,0.31609 -0.47413,0.2032 -0.38383,-0.2032 -0.31609,-0.58703 0.58702,-1.30951 1.2192,-2.57386 0.65475,-1.28694 1.016,-2.12231 0.38382,-0.85796 0.54186,-1.24178 0.18063,-0.4064 0.45156,-0.72249 -0.0903,-0.18062 0.0452,-0.38382 0.13546,-0.2032 0.42897,-0.24836 0.56445,0.11289 0.51929,0.6096 0.38382,0.67734 0.45156,1.35467 0.0677,0.67733 0.0903,1.10631 0.0452,0.42898 0.0903,0.69991 0.0452,0.33867 0.11289,0.67733 0.22578,0.2032 0.11289,0.47414 z m -2.68676,-0.31609 q 0.42898,-0.15805 1.64818,-0.22578 -0.0226,-0.0677 -0.0226,-0.13547 0,-0.0903 -0.0677,-0.4064 -0.0677,-0.31608 -0.11289,-0.88053 -0.0452,-0.56444 -0.15804,-1.12889 -0.0677,0.11289 -0.13547,0.22578 -0.0903,0.0903 -0.22578,0.42898 -0.63218,1.51271 -0.92569,2.12231 z" />
          <path
             inkscape:connector-curvature="0"
             id="path6018"
             style="font-style:normal;font-variant:normal;font-weight:normal;font-stretch:normal;font-size:22.57777786px;font-family:Karumbi;-inkscape-font-specification:'Karumbi, Normal';font-variant-ligatures:normal;font-variant-caps:normal;font-variant-numeric:normal;font-feature-settings:normal;text-align:start;writing-mode:lr-tb;text-anchor:start;fill:#ffffff;stroke-width:0.26458332"
             d="m 145.47753,202.65996 q -0.0452,-0.27093 -0.2032,-0.4064 -0.13546,-0.15804 -0.18062,-0.2032 -0.0226,-0.0452 -0.0677,-0.0903 -0.22578,0.0226 -0.38382,-0.15804 -0.15805,-0.18062 -0.11289,-0.31609 0.0452,-0.15804 0.0452,-0.15804 0,-0.0226 0.0226,-0.0452 0.13547,-0.27093 0.47413,-0.29351 0.49672,0.11289 0.92569,0.69991 0.65476,0.79022 0.29351,1.69333 -0.31608,0.74507 -1.24177,1.33209 -0.42898,0.22578 -0.65476,-0.11289 -0.24835,-0.38382 0.13547,-0.63217 1.08373,-0.58703 0.94826,-1.30952 z" />
          <path
             inkscape:connector-curvature="0"
             id="path6020"
             style="font-style:normal;font-variant:normal;font-weight:normal;font-stretch:normal;font-size:22.57777786px;font-family:Karumbi;-inkscape-font-specification:'Karumbi, Normal';font-variant-ligatures:normal;font-variant-caps:normal;font-variant-numeric:normal;font-feature-settings:normal;text-align:start;writing-mode:lr-tb;text-anchor:start;fill:#ffffff;stroke-width:0.26458332"
             d="m 153.67325,203.45019 q 0.38383,0.15804 0.38383,0.47413 0,0.36124 -0.4064,0.42898 -0.65476,0.0452 -1.12889,0.0677 -0.47414,0 -0.92569,0.0903 -0.97085,0.18062 -1.89653,0.74507 0,0.0452 -0.0226,0.0677 0.65475,0.4064 1.67075,0.69991 1.016,0.29351 1.58045,0.45156 0.56444,0.13547 0.92569,0.27093 0.36124,0.13547 0.65475,0.27094 0.27094,0.13546 0.51929,0.33866 0.6096,0.47414 0.49671,1.016 -0.31609,1.30951 -2.32551,1.69334 -1.17404,0.22577 -3.13831,0.0677 -0.13547,-0.0226 -0.38382,-0.0226 -0.24836,0 -0.51929,-0.0451 -0.69991,-0.0903 -0.83538,-0.33867 -0.13547,-0.4064 0.0226,-0.54187 0.18062,-0.15804 0.33867,-0.15804 0.15804,0 0.29351,0.0903 0.56444,0 1.39982,0.0903 0.83538,0.0677 1.67075,0.0903 2.032,-0.0226 2.52872,-0.99342 -0.27094,-0.45156 -2.48356,-1.17405 -2.50613,-0.79022 -3.16089,-1.24177 -0.24835,-0.24836 -0.2032,-0.45156 0.0452,-0.2032 0.0677,-0.33867 0.0452,-0.29351 0.13547,-0.42897 0.97085,-1.06116 3.52213,-1.15147 0.65476,-0.0226 1.2192,-0.0677 z" />
          <path
             inkscape:connector-curvature="0"
             id="path6022"
             style="font-style:normal;font-variant:normal;font-weight:normal;font-stretch:normal;font-size:22.57777786px;font-family:Karumbi;-inkscape-font-specification:'Karumbi, Normal';font-variant-ligatures:normal;font-variant-caps:normal;font-variant-numeric:normal;font-feature-settings:normal;text-align:start;writing-mode:lr-tb;text-anchor:start;fill:#ffffff;stroke-width:0.26458332"
             d="m 158.66292,209.72681 q -0.0903,-0.13547 -0.0903,-0.29351 0.0226,-0.38382 0.47414,-0.42898 1.33209,0.2032 0.97084,1.03858 -0.27093,0.67733 -1.26435,1.30951 -0.42898,0.22578 -0.65476,-0.11289 -0.24836,-0.38382 0.18062,-0.65476 0.42898,-0.27093 0.79022,-0.67733 h -0.0452 q -0.24836,-0.0452 -0.36125,-0.18062 z m 0.63218,-3.99627 q -0.36124,0.18062 -0.6096,-0.0451 -0.22578,-0.24836 -0.0451,-0.6096 0.29351,-0.24836 0.56444,-0.24836 0.36125,0.11289 0.38382,0.4064 0.0226,0.27093 -0.22577,0.42898 z" />
          <path
             inkscape:connector-curvature="0"
             id="path6024"
             style="font-style:normal;font-variant:normal;font-weight:normal;font-stretch:normal;font-size:22.57777786px;font-family:Karumbi;-inkscape-font-specification:'Karumbi, Normal';font-variant-ligatures:normal;font-variant-caps:normal;font-variant-numeric:normal;font-feature-settings:normal;text-align:start;writing-mode:lr-tb;text-anchor:start;fill:#ffffff;stroke-width:0.26458332"
             d="m 174.46733,207.22068 q 0.38382,0.13546 0.38382,0.45155 0,0.36125 -0.4064,0.45156 -1.73849,0.0451 -3.6576,0.63217 -0.18062,0.0452 -0.33866,0.11289 -0.13547,0.0677 -0.29351,0.13547 -0.6096,2.00942 -1.12889,2.66418 -0.36125,0.18062 -0.6096,-0.0677 -0.22578,-0.22577 -0.0452,-0.58702 0.27093,-0.29351 0.67733,-1.44498 h -0.0677 q -0.36124,-0.18062 -0.29351,-0.6096 0.13547,-0.33866 0.74507,-0.63217 0.67733,-2.50614 0.76764,-4.08658 -0.15804,-0.13547 -0.15804,-0.33867 0,-0.2032 0.15804,-0.31609 v -0.0903 q 0.0903,-0.36124 0.4064,-0.38382 0.33867,-0.0452 0.47413,0.31609 1.15147,-0.11289 2.2352,-0.31609 1.08374,-0.22578 2.2352,-0.27093 0.38383,0.13546 0.38383,0.45155 0,0.36125 -0.4064,0.45156 -1.12889,0.0452 -2.2352,0.24835 -1.08374,0.2032 -2.19005,0.31609 -0.0903,1.33209 -0.65475,3.61245 1.35466,-0.4064 2.57386,-0.54187 1.2192,-0.15804 1.44498,-0.15804 z" />
          <path
             inkscape:connector-curvature="0"
             id="path6026"
             style="font-style:normal;font-variant:normal;font-weight:normal;font-stretch:normal;font-size:22.57777786px;font-family:Karumbi;-inkscape-font-specification:'Karumbi, Normal';font-variant-ligatures:normal;font-variant-caps:normal;font-variant-numeric:normal;font-feature-settings:normal;text-align:start;writing-mode:lr-tb;text-anchor:start;fill:#ffffff;stroke-width:0.26458332"
             d="m 179.77307,209.8397 q 0.38383,0.13546 0.38383,0.47413 0,0.33867 -0.4064,0.42898 -0.36125,0 -0.69992,0.0452 -0.31608,0.0452 -0.67733,0.0903 -0.0226,0.0903 -0.11289,0.27093 -0.22578,0.27093 -0.49671,0.2032 -0.24835,-0.0677 -0.31609,-0.33867 -0.33866,0.0903 -0.51929,-0.22578 -0.15804,-0.29351 0.11289,-0.49671 0.27094,-0.2032 0.69991,-0.27093 0.49671,-1.58044 0.36125,-4.4704 -0.0452,-0.76764 -0.0452,-1.4224 h -0.45155 q -0.24836,-0.0226 -0.36125,-0.18062 -0.0903,-0.13547 -0.0903,-0.29351 0.0226,-0.38383 0.47413,-0.42898 h 0.0903 q 1.49013,-0.15805 1.8288,-0.15805 0.38382,0.13547 0.38382,0.45156 -0.0226,0.45156 -0.69991,0.47413 -0.13547,0 -0.27094,0.0226 0,0.65476 0.0226,1.39982 0,0.74507 0.0226,1.51271 -0.0226,1.76107 -0.29351,2.95769 0.33866,-0.0452 0.6096,-0.0452 z" />
          <path
             inkscape:connector-curvature="0"
             id="path6028"
             style="font-style:normal;font-variant:normal;font-weight:normal;font-stretch:normal;font-size:22.57777786px;font-family:Karumbi;-inkscape-font-specification:'Karumbi, Normal';font-variant-ligatures:normal;font-variant-caps:normal;font-variant-numeric:normal;font-feature-settings:normal;text-align:start;writing-mode:lr-tb;text-anchor:start;fill:#ffffff;stroke-width:0.26458332"
             d="m 184.04027,203.31472 v 0.15804 q 0.58702,0.11289 0.99342,1.24178 0.36125,0.94827 1.26436,2.19005 0.90311,1.2192 1.58044,2.16746 0.0452,-0.4064 0.0677,-0.88053 0.0452,-0.49671 0.24836,-1.28693 0.22578,-0.79023 0.65476,-1.89654 0.45155,-1.10631 0.74506,-2.28035 0.13547,-0.24836 0.47414,-0.29351 h 0.0451 q 0.29351,0.0903 0.36125,0.31609 0.0677,0.2032 -0.0677,0.38382 -0.24835,1.12889 -0.69991,2.21262 -0.45155,1.08373 -0.67733,1.96427 -0.22578,0.88053 -0.27094,1.58044 -0.0452,0.67733 -0.11288,1.33209 -0.2032,0.49671 -0.69992,0.29351 -1.016,-0.92569 -1.80622,-2.16747 -0.76764,-1.24177 -1.2192,-1.94168 -0.45155,-0.69992 -0.6096,-1.15147 -0.15804,-0.45156 -0.38382,-0.76765 -0.13547,0.83538 -0.38382,1.64818 -0.24836,0.79022 -0.36125,1.30951 -0.11289,0.49671 -0.15804,0.83538 -0.0226,0.36125 -0.11289,0.76765 -0.2032,1.016 -0.49671,1.30951 -0.31609,0.18062 -0.49671,0.0226 -0.31609,-0.24835 -0.24836,-0.54186 0.0903,-0.29351 0.15805,-0.56445 0.0677,-0.27093 0.15804,-0.51929 v -0.0226 q 0.18062,-0.76765 0.38382,-1.46756 0.18063,-0.72249 0.36125,-1.35467 0.4064,-1.49013 0.4064,-2.50613 v -0.0677 q 0,-0.0452 0.0226,-0.0677 0.0903,-0.29351 0.33866,-0.33866 0.36125,0 0.51929,0.31609 0,0.0451 0.0226,0.0677 z" />
          <path
             inkscape:connector-curvature="0"
             id="path6030"
             style="font-style:normal;font-variant:normal;font-weight:normal;font-stretch:normal;font-size:22.57777786px;font-family:Karumbi;-inkscape-font-specification:'Karumbi, Normal';font-variant-ligatures:normal;font-variant-caps:normal;font-variant-numeric:normal;font-feature-settings:normal;text-align:start;writing-mode:lr-tb;text-anchor:start;fill:#ffffff;stroke-width:0.26458332"
             d="m 200.02531,210.29125 q -1.39982,-0.0226 -2.8448,-0.0451 -1.4224,0 -2.79964,0.4064 -0.49671,0.13546 -1.12889,0.54186 -0.63218,0.4064 -0.99342,0.58703 -0.36125,0.2032 -0.76765,0.27093 -0.56444,-0.11289 -0.42898,-0.58702 0.11289,-0.47414 0.47414,-0.88054 0.38382,-0.4064 0.6096,-0.88053 0.22577,-0.47413 0.58702,-1.26435 0.38382,-0.76765 0.67733,-1.6256 0.79022,-2.032 0.92569,-3.27378 -0.22578,-0.0903 -0.27093,-0.33867 -0.0452,-0.24835 0.13546,-0.36124 0.18063,-0.13547 0.24836,-0.15805 0.0903,-0.0451 0.18062,-0.0903 0.51929,-0.2032 0.67734,0.33867 v 0.24835 q 0.47413,-0.0903 0.94826,-0.18062 0.49671,-0.11289 0.99342,-0.15804 1.15147,-0.13547 1.87396,0.18062 0.38382,0.27093 0.15804,0.63218 -0.2032,0.33866 -0.6096,0.18062 -0.4064,-0.18062 -0.83537,-0.18062 -0.42898,-0.0226 -0.88054,0.0677 -0.42897,0.0677 -0.88053,0.18062 -0.45156,0.11289 -0.88053,0.18062 -0.13547,0.72249 -0.58703,2.05458 0.6096,-0.0677 1.33209,-0.11289 0.74507,-0.0677 1.10631,-0.24835 0.38383,-0.2032 0.54187,-0.15805 0.11289,0.0226 0.2032,0.15805 0.18062,0.29351 -0.0452,0.63218 -0.72249,0.38382 -1.60303,0.47413 -0.88053,0.0677 -1.67075,0.15804 -0.0677,0 -0.2032,-0.0452 -0.18062,0.45155 -0.38382,0.88053 -0.18063,0.42898 -0.36125,0.88053 -0.18062,0.42898 -0.36124,0.90312 -0.18063,0.47413 -0.33867,0.67733 -0.13547,0.2032 -0.13547,0.22578 0.94827,-0.63218 1.44498,-0.76765 1.46756,-0.4064 2.93511,-0.4064 1.49014,-0.0226 2.98027,0 0.38382,0.13547 0.38382,0.47414 0,0.33866 -0.4064,0.42897 z" />
          <path
             inkscape:connector-curvature="0"
             id="path6032"
             style="font-style:normal;font-variant:normal;font-weight:normal;font-stretch:normal;font-size:22.57777786px;font-family:Karumbi;-inkscape-font-specification:'Karumbi, Normal';font-variant-ligatures:normal;font-variant-caps:normal;font-variant-numeric:normal;font-feature-settings:normal;text-align:start;writing-mode:lr-tb;text-anchor:start;fill:#ffffff;stroke-width:0.26458332"
             d="m 207.40822,203.45019 q 0.38382,0.15804 0.38382,0.47413 0,0.36124 -0.4064,0.42898 -0.65476,0.0452 -1.12889,0.0677 -0.47413,0 -0.92569,0.0903 -0.97084,0.18062 -1.89653,0.74507 0,0.0452 -0.0226,0.0677 0.65476,0.4064 1.67076,0.69991 1.016,0.29351 1.58044,0.45156 0.56444,0.13547 0.92569,0.27093 0.36124,0.13547 0.65475,0.27094 0.27094,0.13546 0.51929,0.33866 0.6096,0.47414 0.49671,1.016 -0.31608,1.30951 -2.32551,1.69334 -1.17404,0.22577 -3.13831,0.0677 -0.13546,-0.0226 -0.38382,-0.0226 -0.24836,0 -0.51929,-0.0451 -0.69991,-0.0903 -0.83538,-0.33867 -0.13546,-0.4064 0.0226,-0.54187 0.18062,-0.15804 0.33867,-0.15804 0.15804,0 0.29351,0.0903 0.56444,0 1.39982,0.0903 0.83538,0.0677 1.67076,0.0903 2.032,-0.0226 2.52871,-0.99342 -0.27094,-0.45156 -2.48356,-1.17405 -2.50613,-0.79022 -3.16089,-1.24177 -0.24835,-0.24836 -0.2032,-0.45156 0.0452,-0.2032 0.0677,-0.33867 0.0452,-0.29351 0.13546,-0.42897 0.97085,-1.06116 3.52214,-1.15147 0.65475,-0.0226 1.2192,-0.0677 z" />
          <path
             inkscape:connector-curvature="0"
             id="path6034"
             style="font-style:normal;font-variant:normal;font-weight:normal;font-stretch:normal;font-size:22.57777786px;font-family:Karumbi;-inkscape-font-specification:'Karumbi, Normal';font-variant-ligatures:normal;font-variant-caps:normal;font-variant-numeric:normal;font-feature-settings:normal;text-align:start;writing-mode:lr-tb;text-anchor:start;fill:#ffffff;stroke-width:0.26458332"
             d="m 220.30011,203.45019 q 0,0.0903 -0.2032,0.29351 l -0.2032,0.0677 q -1.76107,0 -4.13173,0.36125 -0.0903,0.8128 -0.13547,1.71591 -0.0226,0.90311 -0.11289,1.80622 -0.18062,2.19004 -0.67733,3.38667 -0.18063,0.42897 -0.56445,0.31608 -0.38382,-0.11288 -0.29351,-0.56444 0.45156,-1.24178 0.56445,-2.61902 0.11288,-1.39982 0.15804,-2.2352 0.0452,-0.83538 0.13547,-1.64818 -0.69991,0.13547 -1.4224,0.36124 -0.69991,0.2032 -1.39983,0.22578 -0.13546,0.13547 -0.29351,0.13547 -0.15804,0 -0.27093,-0.0903 -0.29351,-0.27094 -0.0903,-0.65476 0.15804,-0.22578 0.65475,-0.29351 1.96427,-0.38382 3.88338,-0.72249 1.91911,-0.36124 3.92854,-0.38382 h 0.11288 q 0.29352,0.13547 0.31609,0.22578 0.0226,0.0903 0.0226,0.0903 0.0226,0 0.0226,0.0226 v 0.0451 q 0.0452,0.0903 0,0.15805 z" />
        </g>
        <g
           id="g4680"
           style="fill:#ffffff"
           transform="matrix(0.63082718,0,0,0.63082718,84.399024,60.785365)">
          <path
             inkscape:connector-curvature="0"
             id="path4667"
             d="m 98.600041,147.22662 -5.857947,4.01069 -0.01705,7.09936 -5.624598,-4.33187 -6.75716,2.17761 2.381755,-6.68793 -4.159105,-5.75353 7.096603,0.1985 4.186691,-5.73348 2.004188,6.81061 z"
             inkscape:transform-center-y="5.5804166"
             inkscape:transform-center-x="44.790856"
             style="fill:#ffffff;fill-opacity:1;stroke:none;stroke-width:2;stroke-miterlimit:4;stroke-dasharray:none;stroke-opacity:1" />
          <path
             inkscape:connector-curvature="0"
             id="path4673"
             d="m 136.01374,158.25386 0.93528,-7.17931 -5.38392,-4.84052 7.11694,-1.32902 2.93989,-6.61622 3.46324,6.35793 7.20086,0.75148 -4.97655,5.25844 1.5105,7.08065 -6.53891,-3.10804 z"
             inkscape:transform-center-y="-0.91110496"
             inkscape:transform-center-x="0.13578553"
             style="fill:#ffffff;fill-opacity:1;stroke:none;stroke-width:2;stroke-miterlimit:4;stroke-dasharray:none;stroke-opacity:1" />
          <path
             inkscape:connector-curvature="0"
             id="path4675"
             d="m 104.32142,170 1.64839,-14.80878 -11.264622,-9.75322 14.593372,-3.00846 5.79491,-13.7272 7.3708,12.94945 14.84608,1.26935 -10.03796,11.01166 3.38047,14.5117 -13.57461,-6.14387 z"
             inkscape:transform-center-y="-1.0412713"
             inkscape:transform-center-x="0.27573942"
             style="fill:#ffffff;fill-opacity:1;stroke:none;stroke-width:2;stroke-miterlimit:4;stroke-dasharray:none;stroke-opacity:1"
             transform="matrix(0.67437209,0,0,0.59500476,36.850169,59.40667)" />
        </g>
        <path
           style="fill:#ffffff;fill-opacity:1;stroke:none;stroke-width:0.7164467;stroke-linecap:butt;stroke-linejoin:miter;stroke-miterlimit:4;stroke-dasharray:none;stroke-opacity:1"
           d="m 0.86246058,196.85398 5.82460712,-5.44603 c 0,0 10.1511423,2.50988 15.0282313,2.81713 4.594492,0.28946 21.433828,-13.54883 21.433828,-13.54883 l -23.255913,-17.65162 7.243974,-4.90755 35.47284,9.00148 c 7.146457,-4.67504 18.569687,-13.25798 27.043252,-11.52846 2.727659,1.06759 3.91671,4.65488 1.146188,7.19993 -2.770523,2.54508 -53.205047,37.03421 -53.205047,37.03421 l -21.35684,6.12943 z"
           id="path3810-2"
           inkscape:connector-curvature="0"
           sodipodi:nodetypes="ccscccccsccc" />
      </g>
    </g>
  </g>
</svg>
