<?xml version="1.0" encoding="UTF-8" standalone="no"?>
<!-- Created with Inkscape (http://www.inkscape.org/) -->

<svg
   xmlns:dc="http://purl.org/dc/elements/1.1/"
   xmlns:cc="http://creativecommons.org/ns#"
   xmlns:rdf="http://www.w3.org/1999/02/22-rdf-syntax-ns#"
   xmlns:svg="http://www.w3.org/2000/svg"
   xmlns="http://www.w3.org/2000/svg"
   xmlns:sodipodi="http://sodipodi.sourceforge.net/DTD/sodipodi-0.dtd"
   xmlns:inkscape="http://www.inkscape.org/namespaces/inkscape"
   width="178.157mm"
   height="100.378mm"
   viewBox="0 0 178.157 100.378"
   version="1.1"
   id="svg1001"
   inkscape:version="0.92.5 (2060ec1f9f, 2020-04-08)"
   sodipodi:docname="logo_final.svg">
  <defs
     id="defs995" />
  <sodipodi:namedview
     id="base"
     pagecolor="#ffffff"
     bordercolor="#666666"
     borderopacity="1.0"
     inkscape:pageopacity="0.0"
     inkscape:pageshadow="2"
     inkscape:zoom="0.35"
     inkscape:cx="-114.28571"
     inkscape:cy="560"
     inkscape:document-units="mm"
     inkscape:current-layer="layer1"
     showgrid="false"
     inkscape:window-width="1848"
     inkscape:window-height="1016"
     inkscape:window-x="72"
     inkscape:window-y="27"
     inkscape:window-maximized="1" />
  <metadata
     id="metadata998">
    <rdf:RDF>
      <cc:Work
         rdf:about="">
        <dc:format>image/svg+xml</dc:format>
        <dc:type
           rdf:resource="http://purl.org/dc/dcmitype/StillImage" />
        <dc:title></dc:title>
      </cc:Work>
    </rdf:RDF>
  </metadata>
  <g
     inkscape:label="Layer 1"
     inkscape:groupmode="layer"
     id="layer1"
     transform="translate(0,-196.622)">
    <g
       transform="matrix(0.64840898,0,0,0.64840898,19.770353,159.06157)"
       id="g924">
      <ellipse
         style="fill:none;fill-opacity:1;stroke:#77d970;stroke-width:2;stroke-miterlimit:4;stroke-dasharray:none;stroke-opacity:1"
         ry="76.403244"
         rx="75.349419"
         cy="135.33037"
         cx="127.56225"
         id="path291" />
      <path
         sodipodi:nodetypes="cccc"
         inkscape:connector-curvature="0"
         id="path291-6"
         d="m 55.644021,156.10817 c 1.831013,40.78606 32.824661,56.60187 73.089809,56.62544 40.24575,-0.0507 75.75316,-40.4478 77.58327,-81.21424 z"
         style="fill:#77d970;fill-opacity:1;stroke:none;stroke-width:0.36884326" />
      <path
         sodipodi:nodetypes="ccscccccsccc"
         inkscape:connector-curvature="0"
         id="path3810-2-5"
         d="m -28.83243,157.4427 19.12809,-11.38514 c 0,0 26.19106,12.88918 39.30952,16.63095 12.35831,3.52496 66.52381,-24.19047 66.52381,-24.19047 L 43.21232,76.50995 65.8909,67.43852 l 91.38639,45.67026 c 22.27419,-8.4954 58.53924,-25.10252 80.61963,-15.34046 6.80357,4.53572 7.91064,15.02734 -1.16078,20.319 -9.07144,5.29167 -167.1572,69.32621 -167.1572,69.32621 L 7.68256,191.4147 Z"
         style="fill:#ffffff;fill-opacity:1;stroke:#77d970;stroke-width:2;stroke-linecap:butt;stroke-linejoin:miter;stroke-miterlimit:4;stroke-dasharray:none;stroke-opacity:1" />
      <g
         id="text838"
         style="font-style:normal;font-weight:normal;font-size:10.58333302px;line-height:1.25;font-family:sans-serif;letter-spacing:0px;word-spacing:0px;fill:#ffffff;fill-opacity:1;stroke:none;stroke-width:0.26458332"
         transform="rotate(-23.887699)"
         aria-label="Magoso Air">
        <g
           transform="matrix(1.3695647,-0.00438968,0.00438968,1.3695647,-19.736784,-80.930292)"
           id="g868">
          <path
             inkscape:connector-curvature="0"
             d="m 28.294599,211.51446 q 0.02258,-0.15805 0.135466,-0.18062 0.112889,-0.0452 0.225778,-0.0452 0.451556,0 0.699911,0.38382 0.248356,0.36125 0.361245,0.94827 0.112888,0.58702 0.135466,1.28693 0.02258,0.69991 0,1.35467 0,0.63218 0,1.15147 0,0.51929 0.06773,0.72249 0.225777,-0.4064 0.564444,-0.97085 0.361244,-0.58702 0.8128,-1.19662 0.451556,-0.6096 0.970844,-1.19662 0.519289,-0.6096 1.061156,-1.06116 0.564444,-0.47413 1.128889,-0.76764 0.564444,-0.29351 1.128889,-0.29351 0.09031,0 0.248355,0.0226 0.158045,0 0.316089,0.0452 0.158045,0.0452 0.248356,0.13547 0.112889,0.0677 0.112889,0.2032 -0.02258,0.18062 -0.180623,0.38382 -0.135466,0.2032 -0.248355,0.31609 -1.128889,1.46755 -1.8288,3.36409 -0.677333,1.89653 -0.767645,3.70275 0,0.13547 -0.02258,0.38382 0,0.22578 0.04515,0.47414 0.04516,0.24835 0.135467,0.42897 0.09031,0.18063 0.293511,0.18063 0.180622,0 0.361244,-0.13547 0.2032,-0.15804 0.428978,-0.15804 0.06773,0 0.112889,0.0226 l 0.06773,0.0677 q -0.02258,0.11289 -0.180622,0.22577 -0.135466,0.11289 -0.316089,0.2032 -0.180622,0.0903 -0.383822,0.15805 -0.180622,0.0451 -0.270933,0.0451 -0.564445,0 -0.880534,-0.2032 -0.316088,-0.22577 -0.474133,-0.56444 -0.158044,-0.33867 -0.2032,-0.76764 -0.02258,-0.45156 0,-0.90312 0.02258,-0.54186 0.135467,-1.15146 0.112889,-0.63218 0.293511,-1.26436 0.180622,-0.65475 0.4064,-1.26435 0.225778,-0.6096 0.474133,-1.08374 0.2032,-0.38382 0.451556,-0.76764 0.270933,-0.38382 0.451555,-0.79022 -0.722489,0.45155 -1.399822,1.24177 -0.654755,0.79023 -1.264355,1.71592 -0.587023,0.92568 -1.106312,1.89653 -0.519288,0.94827 -0.948266,1.76107 -0.428978,0.79022 -0.767645,1.33208 -0.338666,0.54187 -0.564444,0.63218 -0.2032,0.0903 -0.474133,0.0903 -0.09031,0 -0.225778,-0.0226 -0.135467,-0.0226 -0.135467,-0.13547 0,-0.11289 0.112889,-0.4064 0.112889,-0.31609 0.248356,-0.67733 0.135466,-0.38383 0.270933,-0.76765 0.135467,-0.38382 0.180622,-0.67733 0.06773,-0.45156 0.112889,-0.90311 0.04516,-0.45156 0.06773,-0.90311 0.06773,-1.03858 0,-2.09974 -0.02258,0 -0.112889,0.11289 -0.06773,0.11289 -0.158044,0.27093 -0.09031,0.13547 -0.180622,0.27094 -0.06773,0.11289 -0.09031,0.13546 -0.383823,0.6096 -0.993423,1.53529 -0.6096,0.90311 -1.332088,1.78365 -0.722489,0.85795 -1.490134,1.55786 -0.767644,0.67734 -1.467555,0.85796 -0.316089,0.0677 -0.632178,0.0677 -0.09031,0 -0.270933,-0.0226 -0.2032,-0.0226 -0.4064,-0.0677 -0.2032,-0.0677 -0.338667,-0.15804 -0.158045,-0.0903 -0.158045,-0.2032 0,-0.0677 0.158045,-0.0903 0.135467,-0.0226 0.338667,-0.0452 0.2032,-0.0226 0.4064,-0.0452 0.180622,-0.0452 0.270933,-0.0903 0.519289,-0.24835 0.880533,-0.63217 0.383822,-0.38383 0.790222,-0.76765 0.903112,-0.94826 1.715912,-1.98684 0.835377,-1.03858 1.557866,-2.12231 0.09031,-0.13547 0.316089,-0.47414 0.225778,-0.33866 0.451556,-0.69991 0.248355,-0.38382 0.428977,-0.69991 0.180623,-0.31609 0.180623,-0.42898 0.04515,-0.38382 -0.04516,-0.79022 -0.06773,-0.4064 -0.04515,-0.79022 z m 4.4704,8.60213 q 0.04515,-0.11289 0.04515,-0.22578 0,-0.11288 0,-0.22577 0.04516,-0.74507 0.180622,-1.44498 0.158045,-0.72249 0.361245,-1.44498 0.270933,-0.85795 0.6096,-1.73849 0.361244,-0.90311 0.903111,-1.67075 0.04516,-0.0903 0.112889,-0.15805 0.06773,-0.0903 0.112889,-0.2032 -0.474134,0.63218 -0.903111,1.4224 -0.4064,0.79022 -0.722489,1.64818 -0.316089,0.85796 -0.519289,1.73849 -0.180622,0.85795 -0.225778,1.6256 -0.02258,0.29351 0.04516,0.67733 z m -0.270934,0.22578 q -0.04516,-0.22578 -0.02258,-0.38382 0,-0.13547 0,-0.29351 0.02258,-0.15805 0.04516,-0.27094 0.04516,-0.74506 0.2032,-1.55786 0.180622,-0.8128 0.428978,-1.60303 0.270933,-0.8128 0.632178,-1.55786 0.361244,-0.74507 0.767644,-1.39982 l 0.09031,-0.18063 q -0.04516,0.0452 -0.09031,0.13547 -0.04516,0.0903 -0.09031,0.13547 -0.4064,0.63217 -0.767645,1.37724 -0.361244,0.74507 -0.632177,1.53529 -0.270934,0.79022 -0.451556,1.60302 -0.158044,0.79022 -0.180622,1.51271 0,0.0677 -0.02258,0.22578 0,0.13547 0,0.29351 0,0.13547 0.02258,0.27094 0.02258,0.13546 0.06773,0.15804 z m 2.6416,-6.52498 q 0.04516,-0.0677 0.09031,-0.13546 0.06773,-0.0903 0.112889,-0.18063 -0.04516,0.0226 -0.112889,0.15805 -0.06773,0.11289 -0.09031,0.15804 z m -8.963378,3.13831 q 0.135467,-0.13546 0.451556,-0.58702 0.338667,-0.47413 0.699911,-1.016 0.361245,-0.56444 0.654756,-1.03858 0.293511,-0.49671 0.361244,-0.65475 -0.451555,0.69991 -0.880533,1.44498 -0.428978,0.72248 -0.948267,1.37724 -0.180622,0.18062 -0.270933,0.36124 -0.02258,0.0452 -0.02258,0.0903 0,0.0226 -0.04516,0.0226 z m 7.969956,-1.12889 q 0.02258,-0.0226 0.112889,-0.24835 0.09031,-0.22578 0.112889,-0.27093 0.158044,-0.38383 0.338666,-0.72249 0.2032,-0.33867 0.383823,-0.69991 -0.06773,0.0452 -0.225778,0.31608 -0.158045,0.24836 -0.316089,0.58703 -0.135467,0.33866 -0.270933,0.65475 -0.112889,0.29351 -0.135467,0.38382 z m -5.305778,1.46756 q 0.04516,-0.72249 0.02258,-1.39982 -0.02258,-0.67734 -0.04516,-1.37725 v 0.15805 q -0.04516,0.65475 -0.02258,1.28693 0.02258,0.6096 -0.02258,1.26436 l -0.02258,0.4064 v 0.0677 q 0,0.0677 0.04516,0.0677 0.02258,-0.11289 0.02258,-0.22577 0,-0.13547 0.02258,-0.24836 z m -2.935111,0.47413 q 0.135467,-0.15804 0.4064,-0.51929 0.293511,-0.38382 0.587022,-0.79022 0.316089,-0.4064 0.541867,-0.76764 0.248356,-0.38382 0.293511,-0.56445 -0.428978,0.67734 -0.903111,1.33209 -0.474133,0.65476 -0.925689,1.30951 z m 3.273778,-0.90311 q 0,-0.2032 0,-0.42898 0.02258,-0.22577 0.02258,-0.4064 0,-0.2032 -0.02258,-0.31608 0,-0.13547 -0.02258,-0.13547 -0.04515,0.38382 -0.04515,0.76764 0.02258,0.38383 0,0.76765 l -0.02258,0.65475 v 0.18063 0.0452 q 0,0 0.02258,-0.0452 l 0.02258,-0.22578 z m 4.064,2.8448 q 0.04516,-0.0452 0.04516,-0.11289 0.02258,-0.0903 0.02258,-0.13546 0.09031,-0.6096 0.180622,-1.19663 0.112889,-0.58702 0.293512,-1.17404 0.06773,-0.22578 0.135466,-0.45156 0.09031,-0.22577 0.112889,-0.45155 -0.09031,0.0903 -0.225778,0.56444 -0.135466,0.45156 -0.248355,1.016 -0.112889,0.56445 -0.2032,1.08374 -0.09031,0.51929 -0.112889,0.69991 z"
             style="font-style:normal;font-variant:normal;font-weight:normal;font-stretch:normal;font-size:22.57777786px;font-family:'Youth Touch DEMO';-inkscape-font-specification:'Youth Touch DEMO, Normal';font-variant-ligatures:normal;font-variant-caps:normal;font-variant-numeric:normal;font-feature-settings:normal;text-align:start;writing-mode:lr-tb;text-anchor:start;fill:#ffffff;stroke-width:0.26458332"
             id="path840" />
          <path
             inkscape:connector-curvature="0"
             d="m 36.241936,217.13633 q 0.2032,-0.42898 0.587022,-0.97085 0.4064,-0.54187 0.903111,-1.016 0.519289,-0.49671 1.083733,-0.8128 0.587023,-0.33867 1.128889,-0.33867 0.4064,-0.0226 0.790222,0.24836 0.4064,0.24836 0.722489,0.83538 l 0.04516,-0.0226 q 0,-0.0903 0.02258,-0.11289 l 0.09031,-0.33867 q 0.04515,-0.0452 0.04515,-0.15804 0.04516,-0.13547 0.06773,-0.24836 0.02258,-0.13546 0.135466,-0.13546 0.248356,0 0.519289,0.18062 0.270934,0.18062 0.316089,0.42898 0.02258,0.2032 -0.06773,0.56444 -0.06773,0.33867 -0.248356,0.76765 -0.158044,0.4064 -0.383822,0.88053 -0.2032,0.47413 -0.428978,0.92569 -0.225778,0.47413 -0.451555,0.97084 -0.225778,0.49671 -0.4064,0.94827 -0.158045,0.45156 -0.270934,0.83538 -0.09031,0.38382 -0.04515,0.65475 -0.04516,0.18063 0.180622,0.18063 0.135467,0 0.270933,-0.0903 0.06773,-0.0452 0.158045,-0.0677 0.09031,-0.0451 0.135466,-0.0451 0,0.0226 0.02258,0.0226 0.02258,0 0.02258,0.0226 0,0 0.02258,0 -0.04516,0.18062 -0.316089,0.31609 -0.248356,0.11289 -0.451556,0.11289 -0.383822,0 -0.790222,-0.15805 -0.4064,-0.15804 -0.496711,-0.58702 -0.02258,-0.31609 0.04516,-0.65475 0.06773,-0.33867 0.158044,-1.016 -0.158044,0.18062 -0.541867,0.58702 -0.361244,0.38382 -0.790222,0.79022 -0.428978,0.4064 -0.8128,0.72249 -0.383822,0.31609 -0.564444,0.31609 -0.564445,0 -0.903111,-0.36125 -0.338667,-0.38382 -0.428978,-0.90311 -0.04516,-0.33866 0.02258,-0.79022 0.06773,-0.45155 0.225777,-0.90311 0.135467,-0.45156 0.316089,-0.85796 0.180622,-0.42897 0.361245,-0.72248 z m 4.605866,-1.80623 q 0,-0.15804 -0.135466,-0.4064 -0.112889,-0.24835 -0.361245,-0.24835 -0.316089,0 -0.722489,0.36124 -0.383822,0.36125 -0.8128,0.94827 -0.4064,0.56444 -0.790222,1.26435 -0.361244,0.69992 -0.654755,1.39983 -0.270934,0.67733 -0.428978,1.28693 -0.135467,0.58702 -0.06773,0.94827 0.02258,0.11289 0.338667,-0.15805 0.316089,-0.27093 0.767645,-0.76764 0.474133,-0.51929 0.970844,-1.17405 0.519289,-0.67733 0.948267,-1.33209 0.451555,-0.65475 0.722489,-1.2192 0.270933,-0.56444 0.225777,-0.90311 z m 0.654756,0.0903 q 0.04516,0 0.09031,-0.13546 0.06773,-0.13547 0.112889,-0.29351 0.04515,-0.18063 0.06773,-0.33867 0.02258,-0.18062 0.02258,-0.24836 -0.04516,0 -0.06773,0.0903 0,0.0677 0,0.0903 -0.04516,0.22577 -0.112889,0.42897 -0.06773,0.2032 -0.112889,0.4064 z m 0.135467,0.4064 q 0.112888,-0.24835 0.248355,-0.47413 0.135467,-0.22578 0.158045,-0.51929 h -0.04516 q -0.06773,0.24836 -0.180622,0.49671 -0.112889,0.24836 -0.180622,0.49671 z m 0.428977,0.31609 q 0.04516,-0.0903 0.112889,-0.22577 0.09031,-0.15805 0.158045,-0.31609 0.06773,-0.18063 0.112889,-0.33867 0.04516,-0.15804 0.04516,-0.24836 h -0.02258 l -0.06773,0.15805 q -0.09031,0.24835 -0.180622,0.49671 -0.06773,0.22578 -0.158045,0.47413 z m -6.479822,4.58329 q 0.02258,-0.0226 0,-0.15804 0,-0.13547 0,-0.15805 -0.02258,-0.24835 0.02258,-0.49671 0.06773,-0.27093 0.02258,-0.51929 l -0.02258,-0.0226 q -0.02258,0 -0.02258,0.0677 0,0.0452 0,0.0677 -0.04515,0.2032 -0.06773,0.42898 -0.04516,0.22578 0,0.47413 0,0.15805 0.06773,0.31609 z m 0.270933,-0.0677 q 0.02258,-0.0226 0.04516,-0.2032 0.02258,-0.18062 0.04516,-0.4064 0.02258,-0.22578 0.02258,-0.4064 0.02258,-0.2032 0.02258,-0.24836 -0.06773,0.27094 -0.135467,0.56445 -0.06773,0.27093 -0.02258,0.56444 z m 3.522134,0.36124 q 0.02258,-0.0677 0.02258,-0.36124 0,-0.31609 0,-0.42898 l -0.09031,0.65476 z m -3.002845,-0.27093 -0.02258,-0.2032 v 0.24836 l -0.02258,0.0226 z m 3.296356,0.24836 q 0.04516,0 0.04516,-0.0677 0.02258,-0.0903 0,-0.11289 v -0.2032 -0.0452 q -0.04516,0 -0.04516,0.2032 0,0.2032 0,0.22578 z m 0.541867,0.0452 v 0.0452 l 0.04515,0.0452 z m -3.115734,-4.60587 q 0.04516,0 0.135467,-0.0903 0.09031,-0.11289 0.06773,-0.13546 0.158045,-0.2032 0.361245,-0.38383 0.2032,-0.18062 0.316089,-0.36124 v -0.0452 q -0.02258,0 -0.06773,0.0452 -0.04516,0.0226 -0.04516,0.0452 -0.180623,0.13546 -0.361245,0.29351 -0.158044,0.13546 -0.270933,0.36124 -0.02258,0.0452 -0.06773,0.11289 -0.02258,0.0677 -0.06773,0.15804 z m 0.361245,0.11289 q 0.02258,0 0.135466,-0.11289 0.135467,-0.13546 0.293511,-0.27093 0.158045,-0.15804 0.270934,-0.29351 0.135466,-0.13547 0.180622,-0.15804 -0.225778,0.15804 -0.474133,0.33866 -0.225778,0.15805 -0.383823,0.38382 z m 0.361244,0.4064 0.09031,-0.15804 -0.135466,0.18062 v 0.0226 z"
             style="font-style:normal;font-variant:normal;font-weight:normal;font-stretch:normal;font-size:22.57777786px;font-family:'Youth Touch DEMO';-inkscape-font-specification:'Youth Touch DEMO, Normal';font-variant-ligatures:normal;font-variant-caps:normal;font-variant-numeric:normal;font-feature-settings:normal;text-align:start;writing-mode:lr-tb;text-anchor:start;fill:#ffffff;stroke-width:0.26458332"
             id="path842" />
          <path
             inkscape:connector-curvature="0"
             d="m 49.833754,214.78824 q 0.248356,-0.2032 0.4064,-0.49671 0.158045,-0.31609 0.4064,-0.49672 0.180623,0.0452 0.361245,0.15805 0.2032,0.11289 0.2032,0.31609 0,0.0452 -0.180622,0.4064 -0.180623,0.33866 -0.474134,0.85795 -0.270933,0.51929 -0.6096,1.12889 -0.316089,0.6096 -0.632177,1.15147 -0.293512,0.54187 -0.541867,0.97084 -0.225778,0.4064 -0.293511,0.54187 -0.293511,0.54187 -0.880534,1.58044 -0.564444,1.016 -1.309511,2.25778 -0.722489,1.24178 -1.580444,2.52871 -0.857956,1.30951 -1.693333,2.37067 -0.835378,1.08373 -1.603023,1.76107 -0.790222,0.67733 -1.377244,0.67733 -0.722489,0 -1.196622,-0.36124 -0.496711,-0.33867 -0.496711,-1.10632 0,-0.88053 0.496711,-1.85137 0.496711,-0.97085 1.241777,-1.87396 0.745067,-0.90311 1.603023,-1.67075 0.835377,-0.74507 1.535289,-1.19663 0.587022,-0.38382 1.264355,-0.72249 0.677333,-0.31608 1.332089,-0.56444 0.06773,-0.0452 0.158044,-0.0677 0.112889,-0.0226 0.180623,-0.0677 0.04516,-0.0226 0.270933,-0.4064 0.248356,-0.4064 0.541867,-0.90311 0.293511,-0.49671 0.541866,-0.92569 0.248356,-0.45155 0.316089,-0.58702 -0.293511,0.27093 -0.903111,0.85796 -0.587022,0.56444 -1.286933,1.15146 -0.677334,0.58703 -1.332089,1.03858 -0.654756,0.42898 -1.038578,0.42898 -0.270933,0 -0.474133,-0.11289 -0.180622,-0.13547 -0.316089,-0.33867 -0.112889,-0.2032 -0.180622,-0.42897 -0.04516,-0.24836 -0.04516,-0.47414 0,-0.65475 0.270933,-1.33209 0.293512,-0.69991 0.699912,-1.33209 0.428977,-0.65475 0.925688,-1.2192 0.496712,-0.58702 0.948267,-1.03857 0.587022,-0.58703 1.467556,-0.99343 0.880533,-0.4064 1.715911,-0.4064 0.428978,0 0.880533,0.2032 0.474133,0.18063 0.677333,0.58703 z m -6.524977,6.34435 q 0.09031,-0.0226 0.158044,-0.0452 0.06773,-0.0226 0.158045,-0.0677 0.248355,-0.11289 0.677333,-0.45155 0.428978,-0.33867 0.948267,-0.8128 0.541866,-0.49671 1.128888,-1.06116 0.587023,-0.56444 1.128889,-1.08373 0.541867,-0.54187 0.970845,-0.99342 0.451555,-0.47414 0.699911,-0.74507 0.112889,-0.13547 0.2032,-0.29351 0.09031,-0.15805 0.09031,-0.33867 0,-0.54186 -0.564444,-0.54186 -0.4064,0 -0.993423,0.36124 -0.564444,0.33867 -1.196622,0.90311 -0.632178,0.54187 -1.264355,1.24178 -0.6096,0.69991 -1.106312,1.39982 -0.474133,0.69991 -0.790222,1.33209 -0.293511,0.63218 -0.293511,1.03858 0,0.11289 0.04516,0.15804 z m 0.158044,-2.32551 q 0.474133,-0.56444 0.880533,-1.17404 0.4064,-0.6096 0.903112,-1.17405 -0.112889,0.0226 -0.383823,0.33867 -0.270933,0.31609 -0.564444,0.72249 -0.293511,0.38382 -0.541867,0.76764 -0.225778,0.38382 -0.293511,0.51929 z m 5.712178,-1.89653 q -0.6096,0.94826 -1.241778,1.96426 -0.6096,1.016 -1.083733,2.032 0.293511,-0.31608 0.587022,-0.8128 0.293511,-0.51928 0.587022,-1.06115 0.316089,-0.56445 0.587022,-1.10631 0.293512,-0.54187 0.564445,-0.94827 z m -6.118578,2.09973 q 0.09031,-0.13547 0.180622,-0.29351 0.248356,-0.4064 0.496711,-0.79022 0.270934,-0.38382 0.519289,-0.76765 -0.158044,0.18063 -0.338666,0.4064 -0.180623,0.22578 -0.361245,0.47414 -0.158044,0.24835 -0.293511,0.49671 -0.135467,0.24835 -0.2032,0.47413 z m 3.4544,1.87396 q 0.02258,0 0.06773,-0.0452 0.06773,-0.0677 0.248356,-0.36124 0.2032,-0.31609 0.4064,-0.67734 0.225778,-0.38382 0.4064,-0.72249 0.2032,-0.33866 0.248356,-0.42897 0.158044,-0.27094 0.316088,-0.54187 0.158045,-0.27093 0.293512,-0.54187 -0.2032,0.2032 -0.474134,0.67734 -0.248355,0.45155 -0.519289,0.97084 -0.270933,0.51929 -0.541866,0.99342 -0.248356,0.45156 -0.428978,0.63218 0.02258,0 0,0.0226 0,0.0226 -0.02258,0.0226 z m -2.415822,-2.19005 q 0.09031,-0.0903 0.09031,-0.15804 l -0.06773,0.0677 z m 2.415822,2.82222 q -0.06773,0 -0.158044,0.15805 -0.06773,0.13547 -0.09031,0.18062 -0.04516,0.11289 -0.2032,0.33867 -0.135467,0.24835 -0.293512,0.49671 -0.158044,0.24835 -0.270933,0.45155 -0.112889,0.22578 -0.112889,0.27094 0.04516,-0.0903 0.225778,-0.38382 0.180622,-0.29352 0.383822,-0.6096 0.2032,-0.31609 0.361245,-0.58703 0.158044,-0.27093 0.158044,-0.29351 z m 0.338667,0.33867 q 0.09031,-0.0903 0.09031,-0.15804 l -0.06773,0.0677 z m -0.903111,0.0452 q 0.02258,0 0.04515,-0.0677 0.02258,-0.0452 0.04516,-0.0903 l -0.06773,0.0452 q 0,0.0226 -0.02258,0.0452 0,0.0226 0,0.0677 z m -6.208889,8.06026 q 0.428978,0 0.993422,-0.49671 0.564444,-0.47413 1.174044,-1.24178 0.587023,-0.74506 1.196623,-1.67075 0.632177,-0.92569 1.151466,-1.8288 0.541867,-0.90311 0.948267,-1.67076 0.4064,-0.76764 0.6096,-1.19662 -0.541867,0.11289 -1.264356,0.54187 -0.699911,0.42898 -1.444977,1.03858 -0.745067,0.6096 -1.444978,1.33208 -0.722489,0.74507 -1.286933,1.49014 -0.564445,0.76764 -0.903112,1.49013 -0.338666,0.74507 -0.338666,1.30951 0,0.29351 0.112889,0.58702 0.112889,0.31609 0.496711,0.31609 z m 6.073422,-7.83449 q 0.06773,-0.0677 0.06773,-0.13546 -0.02258,0.0451 -0.04516,0.0677 -0.02258,0.0226 -0.02258,0.0677 z"
             style="font-style:normal;font-variant:normal;font-weight:normal;font-stretch:normal;font-size:22.57777786px;font-family:'Youth Touch DEMO';-inkscape-font-specification:'Youth Touch DEMO, Normal';font-variant-ligatures:normal;font-variant-caps:normal;font-variant-numeric:normal;font-feature-settings:normal;text-align:start;writing-mode:lr-tb;text-anchor:start;fill:#ffffff;stroke-width:0.26458332"
             id="path844" />
          <path
             inkscape:connector-curvature="0"
             d="m 49.765986,220.16175 q 0,-0.45156 0.09031,-0.83538 0.09031,-0.38382 0.248356,-0.83538 0.225778,-0.54186 0.699911,-1.30951 0.474133,-0.76764 1.061156,-1.46755 0.587022,-0.72249 1.264355,-1.2192 0.677333,-0.51929 1.332089,-0.51929 0.180622,0 0.4064,0.15804 0.225778,0.15805 0.225778,0.4064 l -0.541867,0.54187 q -0.496711,0.45155 -1.106311,1.15146 -0.6096,0.67734 -1.151467,1.46756 -0.519289,0.76764 -0.903111,1.55787 -0.361244,0.76764 -0.383822,1.39982 0,0.11289 0.02258,0.22578 0.02258,0.11289 0.158044,0.15804 0.2032,-0.0226 0.496711,-0.24835 0.316089,-0.24836 0.632178,-0.54187 0.338667,-0.31609 0.6096,-0.6096 0.270933,-0.31609 0.383822,-0.45156 0.654756,-0.72249 1.151467,-1.60302 0.496711,-0.88053 0.541867,-1.89653 0,-0.18062 0.04516,-0.38382 0.04516,-0.2032 0.338667,-0.2032 0.225778,0 0.338667,0.0903 0.112888,0.0903 0.158044,0.22577 0.04516,0.13547 0.04516,0.29352 0.02258,0.15804 0.02258,0.31608 l -0.02258,0.11289 q -0.02258,0.6096 -0.474134,1.4224 -0.428978,0.8128 -1.083733,1.60303 -0.632178,0.79022 -1.399822,1.46755 -0.745067,0.65476 -1.377245,0.97085 -0.135466,0.0903 -0.361244,0.0903 -0.677334,0 -1.083734,-0.47414 -0.4064,-0.47413 -0.383822,-1.06115 z m 2.8448,-4.28978 q 0.09031,-0.2032 -0.2032,0.13547 -0.225778,0.24835 -0.541866,0.69991 -0.316089,0.42898 -0.541867,0.76764 -0.09031,0.15805 -0.180622,0.33867 -0.09031,0.18062 -0.180623,0.33867 -0.06773,0.15804 -0.112888,0.27093 -0.04516,0.11289 -0.04516,0.13547 0,0.0226 0.09031,-0.13547 0.112889,-0.15805 0.248356,-0.4064 0.135466,-0.22578 0.293511,-0.49671 0.180622,-0.27094 0.338666,-0.51929 0.180623,-0.27093 0.316089,-0.47413 0.158045,-0.22578 0.270934,-0.36125 0.06773,-0.0903 0.135466,-0.15804 0.06773,-0.0903 0.112889,-0.13547 z m -0.632178,0.18062 q 0.135467,-0.13546 0.09031,-0.13546 0,-0.0226 -0.09031,0.11288 -0.112888,0.13547 -0.112888,0.15805 0,0 0.112888,-0.13547 z m -0.135466,0.15805 q -0.04516,0 -0.180622,0.18062 -0.135467,0.18062 -0.316089,0.45155 -0.180623,0.24836 -0.361245,0.54187 -0.180622,0.27093 -0.270933,0.47413 -0.135467,0.27094 -0.293511,0.67734 -0.158045,0.38382 -0.2032,0.51929 -0.04516,0.15804 0,0.0677 0.06773,-0.11289 0.2032,-0.42898 0.225778,-0.45155 0.474133,-0.92569 0.270933,-0.49671 0.564445,-0.94826 0.135466,-0.24836 0.248355,-0.4064 0.112889,-0.15805 0.135467,-0.15805 z m 0.835378,0.49671 q 0.04516,-0.0452 0.04516,-0.0903 v -0.0452 q -0.02258,0 -0.180622,0.22578 -0.158045,0.2032 -0.338667,0.47413 -0.180622,0.27094 -0.361244,0.54187 -0.158045,0.27093 -0.225778,0.4064 -0.04516,0.11289 0,0.0452 0.04516,-0.0452 0.09031,-0.11288 0.04516,-0.0677 0.112889,-0.13547 0.02258,-0.0677 0.135467,-0.24836 0.112889,-0.18062 0.248355,-0.38382 0.135467,-0.22578 0.270934,-0.4064 0.135466,-0.2032 0.2032,-0.27093 z"
             style="font-style:normal;font-variant:normal;font-weight:normal;font-stretch:normal;font-size:22.57777786px;font-family:'Youth Touch DEMO';-inkscape-font-specification:'Youth Touch DEMO, Normal';font-variant-ligatures:normal;font-variant-caps:normal;font-variant-numeric:normal;font-feature-settings:normal;text-align:start;writing-mode:lr-tb;text-anchor:start;fill:#ffffff;stroke-width:0.26458332"
             id="path846" />
          <path
             inkscape:connector-curvature="0"
             d="m 59.74536,214.02059 q 0.338667,0 0.587023,0.15805 0.248355,0.13546 0.4064,0.36124 0.158044,0.22578 0.225777,0.51929 0.06773,0.27093 0.04516,0.51929 -0.04516,0.22578 -0.2032,0.49671 -0.135467,0.27093 -0.361245,0.49671 -0.2032,0.22578 -0.496711,0.38382 -0.270933,0.13547 -0.541866,0.13547 -0.248356,0 -0.496711,-0.11289 -0.225778,-0.11289 -0.180623,-0.36124 0.02258,-0.11289 0.135467,-0.29351 0.135467,-0.2032 0.270933,-0.42898 0.158045,-0.22578 0.293511,-0.45156 0.158045,-0.22578 0.225778,-0.42898 -0.587022,0.31609 -1.106311,0.76765 -0.519289,0.45155 -0.587022,1.06115 -0.04516,0.31609 0.2032,0.6096 0.248355,0.29352 0.541867,0.6096 0.316088,0.31609 0.541866,0.67734 0.248356,0.36124 0.2032,0.79022 -0.04516,0.42898 -0.270933,0.83538 -0.225778,0.38382 -0.587022,0.69991 -0.338667,0.29351 -0.790223,0.49671 -0.451555,0.18062 -0.948266,0.18062 -0.270934,0 -0.677334,-0.13546 -0.383822,-0.15805 -0.722488,-0.38383 -0.361245,-0.22577 -0.587023,-0.49671 -0.225777,-0.29351 -0.180622,-0.58702 0,-0.11289 0.06773,-0.13547 0.06773,-0.0226 0.180623,-0.0226 0.225777,0.13546 0.361244,0.27093 0.135467,0.11289 0.270933,0.22578 0.158045,0.0903 0.361245,0.15804 0.2032,0.0452 0.587022,0.0452 0.293511,0 0.564445,-0.18063 0.293511,-0.18062 0.519288,-0.42897 0.248356,-0.27094 0.4064,-0.56445 0.158045,-0.29351 0.2032,-0.54186 0.02258,-0.36125 -0.2032,-0.6096 -0.2032,-0.27094 -0.474133,-0.54187 -0.270933,-0.29351 -0.474133,-0.6096 -0.2032,-0.33867 -0.135467,-0.83538 0.02258,-0.42898 0.293511,-0.83538 0.270934,-0.42897 0.654756,-0.76764 0.4064,-0.33867 0.903111,-0.54187 0.496711,-0.2032 0.970844,-0.2032 z m -1.761066,1.03858 q 0.09031,-0.13547 0.158044,-0.2032 l 0.06773,-0.0677 q -0.06773,0 -0.316088,0.22577 -0.248356,0.22578 -0.316089,0.36125 -0.112889,0.15804 -0.112889,0.2032 0.02258,0.0226 0.135466,-0.11289 0.09031,-0.18062 0.383823,-0.4064 z m 2.077155,0 q 0.04516,-0.15804 0.02258,-0.18062 0,-0.0452 -0.06773,0.0903 -0.02258,0.0452 -0.135467,0.2032 -0.09031,0.15804 -0.2032,0.33867 -0.135467,0.18062 -0.2032,0.27093 -0.04516,0.0677 -0.04516,0.13547 0.02258,0.0226 0.09031,-0.0677 0.09031,-0.11289 0.180622,-0.24835 0.112889,-0.13547 0.2032,-0.29351 0.112889,-0.15805 0.158044,-0.24836 z m -1.557866,-0.11289 q 0.06773,-0.0677 0,-0.0452 -0.04516,0.0226 -0.180623,0.13546 -0.180622,0.11289 -0.316089,0.27094 -0.135466,0.15804 -0.135466,0.2032 0,0.0226 0.225778,-0.18063 0.225777,-0.2032 0.4064,-0.38382 z m 1.761066,0.45156 q 0.06773,-0.27094 -0.06773,0.0226 -0.04516,0.0452 -0.158045,0.18063 -0.112888,0.13546 -0.158044,0.24835 l -0.2032,0.29351 0.158044,-0.15804 q 0.135467,-0.11289 0.248356,-0.27093 0.135467,-0.15805 0.180622,-0.31609 z m -1.738489,0.15804 q 0,-0.0452 0.02258,-0.0452 0.02258,-0.0226 -0.02258,-0.0226 l -0.02258,0.0226 q 0,0.0226 -0.02258,0.0226 0,0 0,0.0226 -0.02258,0.0226 -0.02258,0.0452 0,0.0226 -0.02258,0.0226 0.02258,0 0.09031,-0.0677 z m 2.122311,0.36125 q 0.06773,-0.18063 0.04516,-0.15805 -0.02258,0.0226 -0.135467,0.2032 -0.06773,0.11289 -0.09031,0.15805 -0.02258,0.0452 0.02258,0 0.02258,-0.0226 0.06773,-0.0677 0.04516,-0.0677 0.09031,-0.13546 z m -1.467555,0.6096 q 0.06773,-0.11289 0.06773,-0.15805 0,-0.0452 -0.06773,0.0226 -0.06773,0.0452 -0.135467,0.18062 -0.04516,0.11289 0,0.11289 0,-0.0226 0.02258,-0.0452 z m 0.270933,0.18062 q -0.02258,-0.0226 -0.135466,0.0677 -0.09031,0.0677 -0.09031,0.0903 0,0.0677 0.112889,-0.0451 z m -1.286933,3.2512 q 0.09031,-0.13547 0.04516,-0.13547 l -0.06773,0.0677 q -0.09031,0.0903 -0.135467,0.15805 -0.180622,0.22578 -0.135466,0.22578 0.04515,0 0.135466,-0.0903 0.09031,-0.11289 0.158045,-0.22578 z m 0.112889,0.38382 q 0.112889,-0.11289 0.09031,-0.11289 -0.02258,0 -0.180622,0.11289 l -0.09031,0.0903 q -0.02258,0.0226 -0.02258,0.0452 0.06773,0.0677 0.2032,-0.13547 z m 0.4064,0.4064 q 0.04516,-0.0226 0.06773,-0.0452 0.02258,-0.0226 -0.02258,-0.0226 0,0 -0.06773,0.0226 -0.02258,0.0226 -0.02258,0.0452 0,0.0226 -0.02258,0.0226 0.02258,0.0226 0.06773,-0.0226 z"
             style="font-style:normal;font-variant:normal;font-weight:normal;font-stretch:normal;font-size:22.57777786px;font-family:'Youth Touch DEMO';-inkscape-font-specification:'Youth Touch DEMO, Normal';font-variant-ligatures:normal;font-variant-caps:normal;font-variant-numeric:normal;font-feature-settings:normal;text-align:start;writing-mode:lr-tb;text-anchor:start;fill:#ffffff;stroke-width:0.26458332"
             id="path848" />
          <path
             inkscape:connector-curvature="0"
             d="m 60.377528,220.16175 q 0,-0.45156 0.09031,-0.83538 0.09031,-0.38382 0.248356,-0.83538 0.225777,-0.54186 0.699911,-1.30951 0.474133,-0.76764 1.061155,-1.46755 0.587023,-0.72249 1.264356,-1.2192 0.677333,-0.51929 1.332089,-0.51929 0.180622,0 0.4064,0.15804 0.225778,0.15805 0.225778,0.4064 l -0.541867,0.54187 q -0.496711,0.45155 -1.106311,1.15146 -0.6096,0.67734 -1.151467,1.46756 -0.519289,0.76764 -0.903111,1.55787 -0.361244,0.76764 -0.383822,1.39982 0,0.11289 0.02258,0.22578 0.02258,0.11289 0.158044,0.15804 0.2032,-0.0226 0.496711,-0.24835 0.316089,-0.24836 0.632178,-0.54187 0.338667,-0.31609 0.6096,-0.6096 0.270933,-0.31609 0.383822,-0.45156 0.654756,-0.72249 1.151467,-1.60302 0.496711,-0.88053 0.541866,-1.89653 0,-0.18062 0.04516,-0.38382 0.04516,-0.2032 0.338667,-0.2032 0.225777,0 0.338666,0.0903 0.112889,0.0903 0.158045,0.22577 0.04516,0.13547 0.04516,0.29352 0.02258,0.15804 0.02258,0.31608 l -0.02258,0.11289 q -0.02258,0.6096 -0.474133,1.4224 -0.428978,0.8128 -1.083733,1.60303 -0.632178,0.79022 -1.399823,1.46755 -0.745066,0.65476 -1.377244,0.97085 -0.135467,0.0903 -0.361244,0.0903 -0.677334,0 -1.083734,-0.47414 -0.4064,-0.47413 -0.383822,-1.06115 z m 2.8448,-4.28978 q 0.09031,-0.2032 -0.2032,0.13547 -0.225778,0.24835 -0.541867,0.69991 -0.316089,0.42898 -0.541866,0.76764 -0.09031,0.15805 -0.180623,0.33867 -0.09031,0.18062 -0.180622,0.33867 -0.06773,0.15804 -0.112889,0.27093 -0.04516,0.11289 -0.04516,0.13547 0,0.0226 0.09031,-0.13547 0.112889,-0.15805 0.248355,-0.4064 0.135467,-0.22578 0.293512,-0.49671 0.180622,-0.27094 0.338666,-0.51929 0.180622,-0.27093 0.316089,-0.47413 0.158045,-0.22578 0.270933,-0.36125 0.06773,-0.0903 0.135467,-0.15804 0.06773,-0.0903 0.112889,-0.13547 z m -0.632178,0.18062 q 0.135467,-0.13546 0.09031,-0.13546 0,-0.0226 -0.09031,0.11288 -0.112889,0.13547 -0.112889,0.15805 0,0 0.112889,-0.13547 z m -0.135466,0.15805 q -0.04516,0 -0.180623,0.18062 -0.135466,0.18062 -0.316089,0.45155 -0.180622,0.24836 -0.361244,0.54187 -0.180622,0.27093 -0.270933,0.47413 -0.135467,0.27094 -0.293511,0.67734 -0.158045,0.38382 -0.2032,0.51929 -0.04516,0.15804 0,0.0677 0.06773,-0.11289 0.2032,-0.42898 0.225777,-0.45155 0.474133,-0.92569 0.270933,-0.49671 0.564444,-0.94826 0.135467,-0.24836 0.248356,-0.4064 0.112889,-0.15805 0.135467,-0.15805 z m 0.835377,0.49671 q 0.04516,-0.0452 0.04516,-0.0903 v -0.0452 q -0.02258,0 -0.180622,0.22578 -0.158045,0.2032 -0.338667,0.47413 -0.180622,0.27094 -0.361244,0.54187 -0.158045,0.27093 -0.225778,0.4064 -0.04516,0.11289 0,0.0452 0.04516,-0.0452 0.09031,-0.11288 0.04516,-0.0677 0.112889,-0.13547 0.02258,-0.0677 0.135466,-0.24836 0.112889,-0.18062 0.248356,-0.38382 0.135467,-0.22578 0.270933,-0.4064 0.135467,-0.2032 0.2032,-0.27093 z"
             style="font-style:normal;font-variant:normal;font-weight:normal;font-stretch:normal;font-size:22.57777786px;font-family:'Youth Touch DEMO';-inkscape-font-specification:'Youth Touch DEMO, Normal';font-variant-ligatures:normal;font-variant-caps:normal;font-variant-numeric:normal;font-feature-settings:normal;text-align:start;writing-mode:lr-tb;text-anchor:start;fill:#ffffff;stroke-width:0.26458332"
             id="path850" />
          <path
             inkscape:connector-curvature="0"
             d="m 83.451967,209.50504 q 0.09031,-0.0452 0.225777,-0.0452 0.112889,0 0.293511,0.0452 h -0.02258 q 0.248355,0.11289 0.361244,0.29351 0.112889,0.18062 0.09031,0.38382 -0.02258,0.27093 -0.158044,0.6096 -0.112889,0.31609 -0.270934,0.63218 -0.04515,0.11289 -0.135466,0.31609 -0.09031,0.18062 -0.06773,0.13546 l -0.09031,0.36125 q 0,0.0226 -0.02258,0 0,-0.0452 0,-0.0226 0.04515,0.0677 0.225777,0.27093 0.180623,0.2032 0.4064,0.45156 l 0.225778,0.24835 q 0.270933,0.27094 0.383822,0.47414 0.135467,0.2032 0.09031,0.51929 0,-0.0452 -0.02258,-0.0677 0,-0.0226 -0.02258,0.0226 -0.4064,0.76765 -0.857956,1.60302 -0.451555,0.8128 -0.835377,1.67076 -0.383823,0.85795 -0.699912,1.73849 -0.316088,0.85795 -0.451555,1.67075 -0.02258,0.2032 0.04515,0.38383 0.06773,0.15804 0.158045,0.27093 0.04515,0.0452 0.04515,0.15804 h 0.02258 q -0.04516,0.13547 -0.338666,0.13547 -0.428978,0 -0.654756,-0.22578 -0.225778,-0.18062 -0.293511,-0.45155 -0.04516,-0.27094 -0.02258,-0.63218 0.06773,-0.79022 0.4064,-1.85138 v 0.0226 q 0.02258,-0.0452 0.02258,-0.13547 0,-0.0677 -0.04516,-0.11289 h -0.112889 q -0.04516,0 -0.158044,0.0226 -0.09031,0 -0.338667,0.0226 -0.225777,0 -0.654755,0.0452 -0.428978,0.0226 -1.128889,0.0677 l -0.857956,0.90311 q -0.857955,0.85795 -1.715911,1.53529 -0.835378,0.67733 -1.8288,0.72249 v -0.0226 h -0.2032 q -0.451555,0 -0.925689,-0.0903 -0.451555,-0.11289 -0.699911,-0.27094 -0.361244,-0.24835 -0.587022,-0.63217 -0.2032,-0.38383 -0.158044,-0.8128 0,-0.33867 0.180622,-0.4064 0.02258,0 0.06773,-0.0452 0.09031,-0.0903 0.112889,-0.0903 0.06773,0 0.112889,0.15804 h -0.02258 l 0.02258,0.18063 h 0.06773 l 0.02258,-0.2032 q 0,-0.11289 0.06773,-0.18063 0.06773,0 0.09031,0.0226 0.02258,0 0.04516,0.0226 0.02258,0 0.04516,0 h 0.09031 q 0.06773,0 0.158044,0.15804 0.112889,0.13547 0.158045,0.33867 0.135466,0.49671 0.293511,0.76765 0.180622,0.27093 0.451555,0.33866 0.112889,0.0452 0.225778,0.0677 0.112889,0.0226 0.225778,0.0226 0.180622,0 0.361244,-0.0903 0.316089,-0.13546 0.903111,-0.65475 0.6096,-0.51929 1.196623,-1.10631 1.4224,-1.4224 2.686755,-3.09316 1.286933,-1.69333 2.302933,-3.16089 0.112889,-0.15804 0.2032,-0.29351 0.112889,-0.15804 0.225778,-0.31609 0.09031,-0.11289 0.135467,-0.22578 0.06773,-0.11289 0.06773,-0.13546 0,-0.0226 0,-0.0677 0,-0.0677 -0.02258,-0.11289 0,-0.0226 -0.02258,-0.0452 0,-0.0452 0,-0.0903 -0.06773,-0.18062 -0.04516,-0.36125 0,-0.11289 0.02258,-0.22577 0.02258,-0.11289 0.06773,-0.27094 0,-0.0226 0,-0.0677 0.02258,-0.0677 0.04516,-0.0903 0.135466,-0.38382 0.361244,-0.69991 0.248356,-0.31609 0.474134,-0.4064 z m -0.09031,3.38666 -2.935111,4.15431 q -0.112889,0.0677 -0.112889,0.15805 0.06773,0.0226 0.316089,0.0226 0.270934,0 0.564445,0 0.316089,0 0.564444,-0.0226 0.270934,-0.0452 0.293511,-0.0903 l 0.158045,-0.27094 q 0.564444,-1.26435 0.903111,-1.85137 0.361244,-0.58703 0.541867,-0.83538 0.158044,-0.22578 0.158044,-0.33867 0,-0.22578 -0.06773,-0.36124 -0.06773,-0.15805 -0.225778,-0.33867 z"
             style="font-style:normal;font-variant:normal;font-weight:normal;font-stretch:normal;font-size:22.57777786px;font-family:'Youth Touch DEMO';-inkscape-font-specification:'Youth Touch DEMO, Normal';font-variant-ligatures:normal;font-variant-caps:normal;font-variant-numeric:normal;font-feature-settings:normal;text-align:start;writing-mode:lr-tb;text-anchor:start;fill:#ffffff;stroke-width:0.26458332"
             id="path852" />
          <path
             inkscape:connector-curvature="0"
             d="m 86.522517,214.13348 q 0,-0.0903 0.158044,-0.11289 0.158045,-0.0226 0.180623,-0.0226 0.383822,0 0.677333,0.31609 0.316089,0.29351 0.316089,0.67734 0,0.4064 -0.225778,0.99342 -0.225778,0.56444 -0.564444,1.19662 -0.338667,0.6096 -0.745067,1.26436 -0.383822,0.63217 -0.722489,1.17404 -0.338667,0.54187 -0.564444,0.97085 -0.225778,0.4064 -0.225778,0.56444 0,0.15804 0.02258,0.22578 0.04516,0.0451 0.09031,0.0677 0.04516,0.0226 0.112889,0.0452 0.06773,0.0226 0.112889,0.11289 0,0.0677 -0.2032,0.11288 -0.2032,0.0452 -0.270934,0.0452 -0.135466,0 -0.316089,-0.0903 -0.158044,-0.0903 -0.316089,-0.22578 -0.135466,-0.13547 -0.225777,-0.29351 -0.112889,-0.18062 -0.112889,-0.33867 0,-0.29351 0.225778,-0.79022 0.2032,-0.51929 0.519288,-1.12889 0.338667,-0.6096 0.722489,-1.26435 0.383823,-0.65476 0.699911,-1.24178 0.338667,-0.6096 0.541867,-1.08373 0.225778,-0.49672 0.225778,-0.74507 0,-0.11289 -0.06773,-0.2032 -0.04516,-0.11289 -0.04516,-0.22578 z m 0.135467,1.33209 q 0.02258,0 0.04515,-0.0903 0.04516,-0.11289 0.06773,-0.22578 0.04516,-0.11289 0.06773,-0.2032 0.04516,-0.11289 0.04516,-0.15804 v -0.0677 q -0.04516,0 -0.09031,0.2032 -0.04516,0.18063 -0.06773,0.22578 -0.02258,0.0677 -0.04516,0.15805 -0.02258,0.0677 -0.02258,0.15804 z m 0.135466,0.47413 q 0.02258,0 0.06773,-0.11289 0.06773,-0.11288 0.112889,-0.24835 0.06773,-0.13547 0.112888,-0.27093 0.04516,-0.13547 0.04516,-0.18063 v -0.0903 q -0.02258,0 -0.09031,0.15805 -0.04516,0.15804 -0.06773,0.2032 -0.02258,0.0452 -0.112889,0.27093 -0.06773,0.22578 -0.06773,0.27093 z m 0.632178,0 q 0.09031,-0.15804 0.09031,-0.31609 v -0.0903 q -0.04516,0.11289 -0.06773,0.2032 -0.02258,0.0903 -0.02258,0.2032 z m -3.183467,4.85423 q 0.04516,0 0.112889,-0.27094 0.06773,-0.27093 0.09031,-0.36124 -0.04516,0.0677 -0.135466,0.29351 -0.09031,0.2032 -0.09031,0.27093 v 0.0452 q 0,0.0226 0.02258,0.0226 z m -0.316088,0 q 0.06773,-0.11289 0.09031,-0.22578 0.02258,-0.11289 0.04515,-0.22578 z m 3.544711,-8.66987 q 0,-0.38382 0.248355,-0.56445 0.270934,-0.2032 0.6096,-0.2032 0.316089,0 0.587022,0.15805 0.293512,0.15804 0.293512,0.51929 0,0.31609 -0.2032,0.56444 -0.2032,0.24836 -0.519289,0.24836 -0.270934,0 -0.654756,-0.2032 -0.361244,-0.2032 -0.361244,-0.51929 z"
             style="font-style:normal;font-variant:normal;font-weight:normal;font-stretch:normal;font-size:22.57777786px;font-family:'Youth Touch DEMO';-inkscape-font-specification:'Youth Touch DEMO, Normal';font-variant-ligatures:normal;font-variant-caps:normal;font-variant-numeric:normal;font-feature-settings:normal;text-align:start;writing-mode:lr-tb;text-anchor:start;fill:#ffffff;stroke-width:0.26458332"
             id="path854" />
          <path
             inkscape:connector-curvature="0"
             d="m 90.60908,216.66219 q 0.180622,-0.2032 0.564444,-0.63218 0.383823,-0.42897 0.8128,-0.85795 0.451556,-0.45156 0.880534,-0.76765 0.428978,-0.33866 0.699911,-0.33866 0.180622,0 0.428978,0.0451 0.270933,0.0226 0.270933,0.27094 0,0.24835 -0.135467,0.51929 -0.135466,0.24835 -0.293511,0.49671 -0.135466,0.24835 -0.270933,0.49671 -0.135467,0.22578 -0.135467,0.42898 0,0.2032 0.06773,0.27093 0.09031,0.0677 0.180622,0.0903 0.112889,0 0.2032,0.0226 0.112889,0 0.135466,0.0677 -0.09031,0.13547 -0.248355,0.29351 -0.158045,0.13547 -0.338667,0.13547 -0.428978,0 -0.632178,-0.0903 -0.180622,-0.0903 -0.270933,-0.24836 -0.09031,-0.15804 -0.158044,-0.36124 -0.06773,-0.22578 -0.225778,-0.49671 -1.083733,1.24177 -2.167467,2.61902 -1.061155,1.35467 -1.783644,2.8448 -0.04516,0.11289 -0.112889,0.2032 -0.06773,0.0677 -0.180622,0.0677 -0.180623,0 -0.361245,-0.0903 -0.180622,-0.0903 -0.338666,-0.2032 l -0.02258,-0.22578 q 0,-0.67733 0.383822,-1.53529 0.4064,-0.88053 0.880533,-1.80622 0.474134,-0.94826 0.857956,-1.85138 0.4064,-0.90311 0.4064,-1.64817 0,-0.22578 0.02258,-0.29351 0.04515,-0.0677 0.316089,-0.0677 0.225777,0 0.361244,0.13547 0.158044,0.13547 0.248356,0.33867 0.09031,0.2032 0.112888,0.42897 0.04516,0.2032 0.04516,0.36125 0,0.36124 -0.09031,0.72249 -0.09031,0.33866 -0.2032,0.65475 z m 2.980267,-1.19662 q 0.225777,-0.4064 0.225777,-0.47413 -0.02258,0.0451 -0.06773,0.11289 -0.09031,0.13546 -0.135467,0.22577 -0.180622,0.31609 -0.248355,0.42898 -0.04516,0.11289 -0.02258,0.13547 0.02258,-0.0452 0.06773,-0.11289 0.09031,-0.13547 0.180623,-0.31609 z m -0.541867,-0.0452 q 0.135467,-0.24835 0.158044,-0.33866 0.02258,-0.0903 -0.09031,0.0226 -0.06773,0.0903 -0.158044,0.29351 -0.09031,0.2032 -0.112889,0.31609 -0.04516,0.13546 0.02258,0.0677 0.06773,-0.0903 0.180622,-0.36125 z m -3.318933,0.33867 q 0.112889,-0.38382 0.112889,-0.51929 -0.02258,-0.0452 -0.04516,-0.0226 0,0.0226 -0.04516,0.15805 -0.06773,0.22578 -0.158044,0.49671 -0.09031,0.24836 -0.225778,0.58702 -0.135466,0.31609 -0.338666,0.74507 -0.180623,0.42898 -0.451556,1.016 -0.248356,0.51929 -0.428978,0.88053 -0.158044,0.36125 -0.270933,0.6096 -0.112889,0.22578 -0.180622,0.36125 -0.04516,0.11289 -0.06773,0.18062 -0.06773,0.22578 -0.135466,0.47413 -0.06773,0.22578 -0.04516,0.22578 0.02258,0.0226 0.06773,-0.18062 0.04516,-0.13547 0.112889,-0.29351 0.06773,-0.18063 0.180623,-0.42898 0.112888,-0.27093 0.293511,-0.65476 0.180622,-0.38382 0.451555,-0.94826 0.316089,-0.65476 0.496711,-1.08374 0.2032,-0.42897 0.316089,-0.69991 0.135467,-0.29351 0.2032,-0.49671 0.09031,-0.2032 0.158045,-0.4064 z m 2.799644,0.0226 q 0.04516,-0.13547 0.04516,-0.15805 -0.02258,-0.0452 -0.06773,0.0452 -0.02258,0.0677 -0.02258,0.13547 0,0.0677 0.04516,-0.0226 z m -2.686755,0.63218 q 0.09031,-0.29351 0.09031,-0.33867 0,-0.0677 -0.112889,0.18062 -0.135467,0.33867 -0.428978,0.94827 -0.270933,0.6096 -0.745067,1.60302 -0.248355,0.54187 -0.451555,0.94827 -0.180622,0.38382 -0.180622,0.4064 0.02258,0.0451 0.2032,-0.27094 0.180622,-0.33866 0.6096,-1.19662 0.474133,-0.99342 0.677333,-1.46755 0.225778,-0.49671 0.338668,-0.8128 z m 0.316088,0.56444 q 0.09031,-0.2032 0.06773,-0.22578 l -0.04516,0.0903 q -0.02258,0.0452 -0.04516,0.11289 -0.02258,0.0452 -0.04516,0.11289 -0.158044,0.31609 -0.180622,0.38382 -0.02258,0.0452 0.02258,0.0226 0.06773,-0.0451 0.225777,-0.49671 z"
             style="font-style:normal;font-variant:normal;font-weight:normal;font-stretch:normal;font-size:22.57777786px;font-family:'Youth Touch DEMO';-inkscape-font-specification:'Youth Touch DEMO, Normal';font-variant-ligatures:normal;font-variant-caps:normal;font-variant-numeric:normal;font-feature-settings:normal;text-align:start;writing-mode:lr-tb;text-anchor:start;fill:#ffffff;stroke-width:0.26458332"
             id="path856" />
        </g>
      </g>
    </g>
  </g>
</svg>
